<svg width="25" height="25" viewBox="0 0 25 25" fill="none" xmlns="http://www.w3.org/2000/svg">
<path d="M17.2082 5.88525L13.979 3.38525C13.5624 2.96859 12.6249 2.76025 11.9999 2.76025H8.04155C6.79155 2.76025 5.43738 3.69775 5.12488 4.94775L2.62488 12.5519C2.10405 14.0103 3.04155 15.2603 4.60405 15.2603H8.77072C9.39572 15.2603 9.91655 15.7811 9.81238 16.5103L9.29155 19.8436C9.08322 20.7811 9.70822 21.8228 10.6457 22.1353C11.4791 22.4478 12.5207 22.0311 12.9374 21.4061L17.2082 15.0519" stroke="#E25201" stroke-width="1.5" stroke-miterlimit="10"/>
<path d="M22.5208 5.88542V16.0937C22.5208 17.5521 21.8958 18.0729 20.4375 18.0729H19.3958C17.9375 18.0729 17.3125 17.5521 17.3125 16.0937V5.88542C17.3125 4.42708 17.9375 3.90625 19.3958 3.90625H20.4375C21.8958 3.90625 22.5208 4.42708 22.5208 5.88542Z" stroke="#E25201" stroke-width="1.5" stroke-linecap="round" stroke-linejoin="round"/>
</svg>
