<svg width="25" height="25" viewBox="0 0 25 25" fill="none" xmlns="http://www.w3.org/2000/svg">
<path d="M7.79175 19.1146L11.0209 21.6146C11.4376 22.0312 12.3751 22.2396 13.0001 22.2396H16.9584C18.2084 22.2396 19.5626 21.3021 19.8751 20.0521L22.3751 12.4479C22.8959 10.9896 21.9584 9.73957 20.3959 9.73957H16.2292C15.6042 9.73957 15.0834 9.21874 15.1876 8.48957L15.7084 5.15624C15.9167 4.21874 15.2917 3.17707 14.3542 2.86457C13.5209 2.55207 12.4792 2.96874 12.0626 3.59374L7.79175 9.9479" stroke="#00EFA7" stroke-width="1.5" stroke-miterlimit="10"/>
<path d="M2.47925 19.1147V8.90641C2.47925 7.44808 3.10425 6.92725 4.56258 6.92725H5.60425C7.06258 6.92725 7.68758 7.44808 7.68758 8.90641V19.1147C7.68758 20.5731 7.06258 21.0939 5.60425 21.0939H4.56258C3.10425 21.0939 2.47925 20.5731 2.47925 19.1147Z" stroke="#00EFA7" stroke-width="1.5" stroke-linecap="round" stroke-linejoin="round"/>
</svg>
