<svg width="180" height="65" viewBox="0 0 180 65" fill="none" xmlns="http://www.w3.org/2000/svg">
<path fill-rule="evenodd" clip-rule="evenodd" d="M20.5672 17.9158H56.5168V64.9999H18.6631V17.9158H20.5672ZM52.6855 21.8732H22.4599V61.0663H52.7085L52.6855 21.8732Z" fill="white"/>
<path fill-rule="evenodd" clip-rule="evenodd" d="M20.5672 17.9157H56.5168V31.3615H18.6631V17.9038L20.5672 17.9157ZM52.6855 21.8732H22.4714V27.4279H52.7085L52.6855 21.8732Z" fill="white"/>
<path d="M11.0466 23.6494H7.23828V31.8027H11.0466V23.6494Z" fill="#EF7C00"/>
<path d="M11.0695 42.0063H7.26123V49.7305H11.0695V42.0063Z" fill="#EF7C00"/>
<path fill-rule="evenodd" clip-rule="evenodd" d="M18.663 65H0V0H40.469L40.4805 17.9277H36.6837V3.94554H3.79684V61.0545H18.663V65Z" fill="#EF7C00"/>
<path fill-rule="evenodd" clip-rule="evenodd" d="M20.5672 17.9157H30.7533V31.3615H18.686V17.9038L20.5672 17.9157ZM26.945 21.8732H22.4714V27.4279H26.945V21.8732Z" fill="white"/>
<path fill-rule="evenodd" clip-rule="evenodd" d="M0.217712 63.045L0.0341797 34.8064H18.6857V38.7519H3.85396L4.00308 63.0211L0.217712 63.045Z" fill="#EF7C00"/>
<path fill-rule="evenodd" clip-rule="evenodd" d="M37.2114 33.9839C39.5978 33.99 41.9084 34.855 43.7503 36.4318C45.5921 38.0086 46.8515 40.1998 47.314 42.6326C47.7765 45.0654 47.4137 47.5896 46.2873 49.7758C45.1609 51.962 43.3404 53.6752 41.1355 54.6239C38.9307 55.5726 36.4776 55.6982 34.1937 54.9794C31.9097 54.2606 29.936 52.7418 28.6081 50.6813C27.2803 48.6208 26.6803 46.1459 26.9104 43.6776C27.1405 41.2093 28.1863 38.9001 29.8701 37.1427C30.8323 36.1384 31.9765 35.3421 33.2366 34.8C34.4966 34.2578 35.8476 33.9804 37.2114 33.9839ZM41.8685 39.9439C40.7911 38.8149 39.3701 38.1095 37.8479 37.948C36.3257 37.7865 34.7968 38.1791 33.5221 39.0586C32.2475 39.9381 31.3061 41.2501 30.8586 42.7706C30.4112 44.2911 30.4854 45.9259 31.0687 47.3958C31.652 48.8658 32.7081 50.0798 34.0569 50.8306C35.4056 51.5815 36.9633 51.8226 38.4641 51.5129C39.9648 51.2031 41.3156 50.3617 42.2859 49.1323C43.2561 47.9028 43.7857 46.3615 43.7841 44.7715C43.7836 42.9627 43.0951 41.2274 41.8685 39.9439Z" fill="white"/>
<path fill-rule="evenodd" clip-rule="evenodd" d="M53.8324 10.4897H49.095L47.8561 13.7915H45.4473L50.4141 0.822496H52.5018L57.4687 13.8153H55.0483L53.8324 10.5135V10.4897ZM51.4465 3.92171C50.9991 5.2806 50.6091 6.41299 50.2994 7.31892L49.875 8.51092H53.1327L52.7083 7.31892C52.3642 6.40107 51.9627 5.25675 51.5612 3.90978L51.4465 3.92171ZM67.9071 4.25547C67.9159 4.79487 67.7936 5.32784 67.5515 5.80507C67.267 6.31728 66.8443 6.73168 66.3356 6.99707C66.6375 7.09976 66.9263 7.23984 67.1959 7.41428C67.4454 7.58165 67.6696 7.78651 67.8612 8.02219C68.0519 8.2652 68.203 8.53902 68.3086 8.83277C68.4166 9.15046 68.471 9.48519 68.4692 9.82213C68.4677 10.1696 68.4174 10.5149 68.3201 10.8473C68.2201 11.2281 68.0485 11.5846 67.8153 11.8962C67.5413 12.2627 67.2121 12.5807 66.8403 12.8379C66.3682 13.1523 65.8486 13.382 65.3032 13.5173C65.1426 13.5173 64.9706 13.5889 64.7871 13.6246L64.1676 13.7081H63.422H58.8337V0.822496H63.1811C63.9555 0.792611 64.7297 0.889151 65.4753 1.10858C65.8833 1.23252 66.2702 1.42152 66.6224 1.66883C66.92 1.88286 67.1832 2.14434 67.4024 2.44362C67.7876 2.97136 67.9933 3.61698 67.9874 4.2793L67.9071 4.25547ZM61.1508 8.1414V11.8009H62.642C63.0435 11.8009 63.3876 11.8009 63.6744 11.8009C63.9259 11.7851 64.1755 11.7451 64.42 11.6817C64.6953 11.6249 64.9617 11.5286 65.2115 11.3956C65.4069 11.2961 65.5822 11.1585 65.7277 10.9903C65.852 10.8407 65.9457 10.6663 66.003 10.4777C66.0639 10.2895 66.0949 10.0922 66.0947 9.89365C66.098 9.55049 65.9933 9.21561 65.7965 8.94004C65.5684 8.63774 65.2493 8.42369 64.8903 8.33213C64.6836 8.27125 64.4727 8.2274 64.2594 8.20101C64.0185 8.20101 63.6973 8.20101 63.3188 8.20101L61.1508 8.1414ZM63.2155 6.15076C63.6855 6.17523 64.1558 6.1106 64.6035 5.96003C64.9061 5.84093 65.1635 5.62354 65.3376 5.34018C65.4874 5.06842 65.5628 4.75926 65.5556 4.44618C65.5606 4.12104 65.4728 3.80165 65.3032 3.52835C65.0894 3.23453 64.7862 3.02449 64.4429 2.93235C64.2509 2.88096 64.0553 2.84507 63.8579 2.82505C63.6285 2.82505 63.3532 2.82505 63.032 2.82505H61.1508V6.18652L63.2155 6.15076ZM76.4987 2.57474C75.907 2.56783 75.3194 2.67703 74.7667 2.89659C74.2559 3.10086 73.7941 3.41812 73.4131 3.82635C73.0184 4.25995 72.7173 4.77603 72.5299 5.34018C72.3037 6.00174 72.1948 6.70045 72.2087 7.40237C72.1954 8.08578 72.2924 8.76668 72.4954 9.41686C72.6672 9.96022 72.9532 10.457 73.3328 10.8711C73.7013 11.2667 74.1527 11.5686 74.6519 11.7532C75.2241 11.9563 75.8253 12.0571 76.4299 12.0512C76.914 12.052 77.3974 12.0122 77.8752 11.932C78.3458 11.8653 78.81 11.7576 79.2632 11.6101V13.6485C78.2912 13.9225 77.288 14.0588 76.2808 14.0538C75.3287 14.0725 74.381 13.9151 73.4819 13.5889C72.7242 13.3003 72.0355 12.8448 71.4631 12.2538C70.9142 11.6698 70.4986 10.965 70.2472 10.1917C69.9635 9.34097 69.8238 8.44564 69.8342 7.5454C69.8284 6.60464 69.9758 5.66965 70.2701 4.77996C70.5408 3.9628 70.9703 3.21219 71.5319 2.57474C72.1014 1.93702 72.7983 1.43659 73.5737 1.10858C74.4601 0.74068 75.4066 0.554476 76.3611 0.560254C76.8638 0.558323 77.366 0.594173 77.8638 0.66753C78.2994 0.73981 78.729 0.847424 79.1485 0.989376V2.99195C78.6911 2.84561 78.2231 2.73797 77.7491 2.67011C77.3354 2.60366 76.9173 2.57177 76.4987 2.57474ZM91.0781 10.5135H86.3407L85.1248 13.8153H82.6815L87.6484 0.822496H89.7475L94.7144 13.8153H92.294L91.0781 10.5135ZM88.6922 3.94554C88.2449 5.30443 87.8434 6.43684 87.5451 7.34276L87.1207 8.53477H90.2981L89.8737 7.34276C89.5296 6.42492 89.1281 5.28059 88.7266 3.93363L88.6922 3.94554ZM99.5665 8.78508H98.9586C98.7521 8.78508 98.5686 8.78508 98.3965 8.78508V13.863H96.1024V0.822496H99.7157C100.248 0.816509 100.781 0.844383 101.31 0.905945C101.7 0.949508 102.084 1.03335 102.457 1.15626C103.229 1.36465 103.919 1.81899 104.43 2.45554C104.916 3.10385 105.165 3.91105 105.13 4.73227C105.138 5.31623 105.008 5.89328 104.751 6.413C104.492 6.926 104.118 7.36732 103.662 7.70037C103.125 8.07626 102.526 8.34692 101.895 8.49901C101.119 8.70074 100.321 8.79689 99.5207 8.78508H99.5665ZM98.4195 6.73485H98.9127H99.4748C99.9948 6.74134 100.514 6.68938 101.023 6.57988C101.382 6.5005 101.724 6.35517 102.033 6.15076C102.27 5.9784 102.46 5.74407 102.583 5.47131C102.701 5.20182 102.759 4.9088 102.755 4.61306C102.76 4.26554 102.672 3.92345 102.503 3.62371C102.286 3.31248 101.975 3.08581 101.62 2.98002C101.359 2.8923 101.09 2.8324 100.817 2.80123C100.435 2.78135 100.052 2.78135 99.6698 2.80123H98.3851V6.72291L98.4195 6.73485ZM110.693 8.78508H110.085C109.89 8.78508 109.707 8.78508 109.523 8.78508V13.863H107.229V0.822496H110.842C111.371 0.816487 111.9 0.844362 112.425 0.905945C112.838 0.945534 113.245 1.02941 113.641 1.15626C114.412 1.36758 115.101 1.82139 115.614 2.45554C116.088 3.11016 116.331 3.91385 116.302 4.73227C116.309 5.3147 116.183 5.8905 115.935 6.413C115.662 6.93445 115.268 7.37689 114.788 7.70037C114.255 8.07636 113.661 8.34709 113.033 8.49901C112.253 8.70071 111.451 8.79685 110.647 8.78508H110.693ZM109.546 6.73485H110.051H110.682C111.202 6.7407 111.721 6.68874 112.23 6.57988C112.587 6.49594 112.928 6.35092 113.24 6.15076C113.477 5.9784 113.667 5.74407 113.79 5.47131C113.898 5.19923 113.953 4.90741 113.951 4.61306C113.961 4.26484 113.873 3.92118 113.699 3.62371C113.487 3.31264 113.179 3.08565 112.827 2.98002C112.562 2.89238 112.289 2.83249 112.012 2.80123C111.63 2.78098 111.247 2.78098 110.865 2.80123H109.569V6.72291L109.546 6.73485ZM120.661 0.774824V11.777H126.511V13.7677H118.356V0.822496L120.661 0.774824ZM128.267 13.7677V0.822496H130.561V13.8153L128.267 13.7677ZM140.334 10.4658H135.596L134.38 13.7677H131.937L136.904 0.774824H139.003L143.97 13.7677H141.538L140.391 10.4658H140.334ZM137.936 3.89787C137.489 5.25675 137.099 6.38915 136.789 7.29507L136.365 8.48708H139.623L139.198 7.29507C138.854 6.37723 138.464 5.23292 138.051 3.88596L137.936 3.89787ZM151.873 6.81828C152.768 8.1414 153.502 9.32149 154.064 10.3943C153.996 8.70959 153.961 7.48183 153.961 6.711V0.822496H156.255V13.8153H153.846L149.763 7.85531C149.052 6.83019 148.306 5.62627 147.537 4.2793H147.48C147.56 5.87659 147.595 7.10436 147.595 7.97452V13.863H145.301V0.822496H147.652L151.782 6.86597L151.873 6.81828ZM164.985 2.52705C164.397 2.52107 163.813 2.63026 163.264 2.8489C162.753 3.05317 162.291 3.37042 161.91 3.77866C161.516 4.21226 161.215 4.72836 161.027 5.29251C160.801 5.95406 160.692 6.65276 160.706 7.35468C160.693 8.03809 160.79 8.71899 160.993 9.36917C161.164 9.91253 161.451 10.4093 161.83 10.8234C162.199 11.2191 162.65 11.5209 163.149 11.7055C163.717 11.9086 164.315 12.0094 164.916 12.0035C165.404 12.0048 165.891 11.965 166.373 11.8843C166.843 11.8176 167.307 11.7099 167.761 11.5624V13.6008C167.296 13.7287 166.825 13.8283 166.35 13.8988C165.825 13.9713 165.296 14.0071 164.767 14.0061C163.818 14.0234 162.875 13.866 161.979 13.5412C161.222 13.2526 160.533 12.7972 159.96 12.2061C159.412 11.6196 158.993 10.9159 158.733 10.144C158.459 9.29114 158.323 8.39685 158.332 7.49773C158.326 6.55697 158.473 5.62196 158.767 4.73227C159.038 3.91511 159.468 3.1645 160.029 2.52705C160.599 1.88933 161.296 1.3889 162.071 1.06089C162.957 0.69299 163.904 0.506804 164.858 0.512582C165.361 0.510651 165.863 0.5465 166.361 0.619858C166.796 0.693517 167.226 0.801106 167.646 0.941704V2.94426C167.188 2.79923 166.72 2.69162 166.246 2.62242C165.829 2.55554 165.407 2.52365 164.985 2.52705ZM171.982 11.777H178.142V13.7677H169.688V0.822496H177.797V2.81314H171.982V6.1746H176.983V8.16525H171.982V11.777Z" fill="white"/>
<path fill-rule="evenodd" clip-rule="evenodd" d="M82.7162 27.8571C82.7629 29.4892 82.2598 31.0871 81.2938 32.3748C80.1437 33.749 78.6067 34.7123 76.9005 35.1284V35.1999L84.2647 45.6895H78.8276L72.1401 35.8078H69.0774V45.6895H64.5693V20.1926H72.0254C73.1757 20.1878 74.3251 20.2595 75.4666 20.4071C76.3984 20.519 77.3146 20.743 78.1967 21.0746C79.5291 21.554 80.6921 22.4386 81.5347 23.6136C82.3425 24.8649 82.7444 26.3517 82.6817 27.8571H82.7162ZM71.2453 31.91C72.1153 31.9188 72.985 31.871 73.8492 31.7669C74.4636 31.6975 75.068 31.5535 75.6501 31.3378C76.4199 31.0866 77.0838 30.5692 77.5314 29.8716C77.8852 29.226 78.0636 28.4927 78.0475 27.7499C78.0595 27.1194 77.9174 26.496 77.6346 25.938C77.3093 25.3894 76.8167 24.9698 76.2351 24.746C75.7225 24.5211 75.1819 24.3727 74.6292 24.305C73.8348 24.1941 73.0333 24.1463 72.2318 24.1619H69.0774V31.9696L71.2453 31.91ZM91.8928 41.7917H103.972V45.6895H87.3962V20.1926H103.318V24.1023H91.9043V30.6941H101.769V34.6039H91.9043V41.7559L91.8928 41.7917ZM114.754 35.8316H113.607C113.224 35.825 112.841 35.7972 112.46 35.7482V45.7253H107.963V20.1926H115.052C116.091 20.1804 117.129 20.2361 118.161 20.3594C118.965 20.4415 119.76 20.6011 120.535 20.8362C122.051 21.2561 123.404 22.151 124.413 23.3991C125.362 24.6698 125.846 26.2499 125.778 27.8571C125.797 29.0075 125.545 30.1454 125.043 31.1709C124.538 32.1767 123.801 33.0367 122.898 33.6741C121.855 34.4173 120.688 34.9547 119.457 35.2595C117.926 35.6472 116.353 35.8314 114.777 35.8078L114.754 35.8316ZM112.46 31.8146C112.712 31.8146 113.045 31.8861 113.435 31.91H114.674C115.695 31.9287 116.715 31.8247 117.714 31.6C118.42 31.4501 119.094 31.163 119.698 30.7537C120.167 30.4286 120.54 29.9747 120.776 29.4425C121.001 28.9089 121.114 28.3321 121.109 27.7499C121.123 27.0654 120.948 26.391 120.604 25.8069C120.188 25.1895 119.581 24.7392 118.884 24.5315C118.368 24.3652 117.838 24.2534 117.301 24.1977C116.538 24.1244 115.772 24.0925 115.006 24.1023H112.471V31.8146H112.46ZM140.896 39.2408L143.271 45.7134H148.031L138.281 20.2164H134.174L124.424 45.7134H129.219L131.593 39.2408H140.896ZM136.182 26.3195H136.262C137.134 28.9776 137.914 31.1948 138.556 33.0066L139.393 35.3072H132.993L133.887 33.0066C134.56 31.2186 135.325 28.9935 136.182 26.3314V26.3195ZM150.715 45.6895V20.1926H155.223V45.6895H150.715ZM178.463 27.8095C178.505 29.4408 178.002 31.037 177.041 32.3272C175.886 33.7016 174.345 34.6647 172.636 35.0807V35.1522L180 45.6419H174.586L167.91 35.7601H164.859V45.6419H160.351V20.1926H167.818C168.968 20.1869 170.118 20.2586 171.259 20.4071C172.207 20.5203 173.139 20.7483 174.035 21.0866C175.364 21.5724 176.526 22.4558 177.373 23.6255C178.181 24.8768 178.583 26.3637 178.52 27.8691L178.463 27.8095ZM166.992 31.8623C167.866 31.8714 168.739 31.8237 169.608 31.7192C170.221 31.647 170.826 31.5031 171.408 31.2901C172.175 31.0392 172.836 30.5214 173.278 29.824C173.636 29.1795 173.818 28.4461 173.806 27.7022C173.818 27.0717 173.676 26.4483 173.393 25.8903C173.065 25.3441 172.573 24.9253 171.993 24.6983C171.481 24.4735 170.94 24.325 170.388 24.2573C169.589 24.1469 168.784 24.0991 167.979 24.1142H164.859V31.9219L166.992 31.8623Z" fill="#EF7C00"/>
</svg>
