<svg width="40" height="30" viewBox="0 0 40 30" fill="none" xmlns="http://www.w3.org/2000/svg">
<rect x="0.5" y="0.5" width="39" height="29" rx="3.5" fill="white" stroke="#F3F3F3"/>
<path d="M23.6621 21.7325H16.5234V7.88428H23.6621V21.7325Z" fill="#FF5F00"/>
<path d="M16.9808 14.8071C16.9808 11.9979 18.1993 9.4956 20.0969 7.883C18.7092 6.70379 16.958 5.99995 15.0547 5.99995C10.5489 5.99995 6.89648 9.94299 6.89648 14.8071C6.89648 19.6712 10.5489 23.6143 15.0547 23.6143C16.958 23.6143 18.7092 22.9104 20.0969 21.7312C18.1993 20.1186 16.9808 17.6163 16.9808 14.8071Z" fill="#EB001B"/>
<path d="M33.2903 14.8071C33.2903 19.6712 29.6378 23.6143 25.132 23.6143C23.2288 23.6143 21.4775 22.9104 20.0894 21.7312C21.9874 20.1186 23.2059 17.6163 23.2059 14.8071C23.2059 11.9979 21.9874 9.4956 20.0894 7.883C21.4775 6.70379 23.2288 5.99995 25.132 5.99995C29.6378 5.99995 33.2903 9.94299 33.2903 14.8071Z" fill="#F79E1B"/>
</svg>
