<svg width="185" height="185" viewBox="0 0 185 185" fill="none" xmlns="http://www.w3.org/2000/svg">
<path d="M14.4531 37.5898H170.547V135.871H14.4531V37.5898Z" fill="white"/>
<path d="M31.7969 135.871H54.9219V147.434H31.7969V135.871ZM127.188 135.871H150.312V147.434H127.188V135.871ZM26.0156 49.1523H124.297V118.527H26.0156V49.1523ZM135.859 49.1523H158.984V66.4961H135.859V49.1523ZM158.984 112.746C158.984 115.813 157.766 118.754 155.598 120.922C153.429 123.09 150.488 124.309 147.422 124.309C144.355 124.309 141.414 123.09 139.246 120.922C137.078 118.754 135.859 115.813 135.859 112.746C135.859 109.68 137.078 106.739 139.246 104.57C141.414 102.402 144.355 101.184 147.422 101.184C150.488 101.184 153.429 102.402 155.598 104.57C157.766 106.739 158.984 109.68 158.984 112.746Z" fill="#FFF6EC"/>
<path d="M31.7969 132.98C31.0302 132.98 30.295 133.285 29.7529 133.827C29.2108 134.369 28.9062 135.104 28.9062 135.871V147.433C28.9091 148.044 29.1053 148.638 29.4668 149.131C29.8282 149.623 30.3363 149.988 30.9181 150.174C30.9999 150.201 31.0829 150.223 31.1667 150.243C31.1918 150.243 31.2168 150.243 31.2419 150.243C31.2881 150.244 31.3344 150.244 31.3806 150.243C31.5064 150.271 31.6339 150.29 31.7622 150.301C31.7737 150.301 31.7853 150.301 31.7969 150.301H54.9219C55.6885 150.301 56.4238 149.996 56.9659 149.454C57.508 148.912 57.8125 148.177 57.8125 147.41V135.848L57.7662 135.905C57.7771 135.14 57.4836 134.401 56.9503 133.852C56.4171 133.302 55.6875 132.987 54.9219 132.975L31.7969 132.98ZM34.6875 138.762H52.0312V144.543H34.6875V138.762Z" fill="#EF7C00"/>
<path d="M14.4531 34.6992C13.6865 34.6992 12.9512 35.004 12.4091 35.5461C11.867 36.0882 11.5625 36.8232 11.5625 37.5898V135.871C11.5625 136.638 11.867 137.373 12.4091 137.915C12.9512 138.457 13.6865 138.762 14.4531 138.762H170.547C171.314 138.762 172.049 138.457 172.591 137.915C173.133 137.373 173.438 136.638 173.438 135.871V37.5898C173.438 36.8232 173.133 36.0882 172.591 35.5461C172.049 35.004 171.314 34.6992 170.547 34.6992H14.4531ZM17.3438 40.4805H167.656V132.98H17.3438V40.4805Z" fill="#EF7C00"/>
<path d="M127.188 132.98C126.421 132.98 125.686 133.285 125.144 133.827C124.601 134.369 124.297 135.104 124.297 135.871V147.434C124.3 148.044 124.496 148.639 124.857 149.131C125.219 149.623 125.727 149.988 126.309 150.174C126.391 150.201 126.473 150.224 126.557 150.243C126.582 150.243 126.607 150.243 126.632 150.243C126.679 150.244 126.725 150.244 126.771 150.243C126.897 150.271 127.024 150.29 127.153 150.301C127.164 150.301 127.176 150.301 127.188 150.301H150.312C151.079 150.301 151.814 149.996 152.356 149.454C152.899 148.912 153.203 148.177 153.203 147.41V135.848L153.157 135.906C153.168 135.14 152.874 134.402 152.341 133.852C151.808 133.302 151.078 132.987 150.312 132.975L127.188 132.98ZM130.078 138.762H147.422V144.543H130.078V138.762ZM26.0156 46.2617C25.249 46.2617 24.5137 46.5665 23.9716 47.1086C23.4295 47.6507 23.125 48.3857 23.125 49.1523V118.527C23.125 119.294 23.4295 120.029 23.9716 120.571C24.5137 121.113 25.249 121.418 26.0156 121.418H124.297C125.064 121.418 125.799 121.113 126.341 120.571C126.883 120.029 127.188 119.294 127.188 118.527V49.1523C127.188 48.3857 126.883 47.6507 126.341 47.1086C125.799 46.5665 125.064 46.2617 124.297 46.2617H26.0156ZM28.9062 52.043H121.406V115.637H28.9062V52.043ZM135.859 46.2617C135.093 46.2617 134.357 46.5665 133.815 47.1086C133.273 47.6507 132.969 48.3857 132.969 49.1523V66.4961C132.969 67.2627 133.273 67.9978 133.815 68.5399C134.357 69.082 135.093 69.3867 135.859 69.3867H158.984C159.751 69.3867 160.486 69.082 161.028 68.5399C161.57 67.9978 161.875 67.2627 161.875 66.4961V49.1523C161.875 48.3857 161.57 47.6507 161.028 47.1086C160.486 46.5665 159.751 46.2617 158.984 46.2617H135.859ZM138.75 52.043H156.094V63.6055H138.75V52.043Z" fill="#EF7C00"/>
<path fill-rule="evenodd" clip-rule="evenodd" d="M135.628 75.168C134.861 75.168 134.126 75.4727 133.584 76.0148C133.042 76.5569 132.737 77.292 132.737 78.0586C132.737 78.8252 133.042 79.5603 133.584 80.1024C134.126 80.6445 134.861 80.9492 135.628 80.9492H142.091C142.858 80.9492 143.593 80.6445 144.135 80.1024C144.677 79.5603 144.982 78.8252 144.982 78.0586C144.982 77.292 144.677 76.5569 144.135 76.0148C143.593 75.4727 142.858 75.168 142.091 75.168H135.634H135.628ZM152.821 75.168C152.055 75.168 151.319 75.4727 150.777 76.0148C150.235 76.5569 149.931 77.292 149.931 78.0586C149.931 78.8252 150.235 79.5603 150.777 80.1024C151.319 80.6445 152.055 80.9492 152.821 80.9492H159.366C160.132 80.9492 160.868 80.6445 161.41 80.1024C161.952 79.5603 162.256 78.8252 162.256 78.0586C162.256 77.292 161.952 76.5569 161.41 76.0148C160.868 75.4727 160.132 75.168 159.366 75.168H152.821Z" fill="#EF7C00"/>
<path d="M147.422 98.293C143.592 98.3052 139.923 99.8314 137.215 102.539C134.508 105.247 132.981 108.917 132.969 112.746C132.969 120.695 139.473 127.199 147.422 127.199C155.371 127.199 161.875 120.695 161.875 112.746C161.875 104.797 155.371 98.293 147.422 98.293ZM147.422 104.074C152.243 104.074 156.094 107.919 156.094 112.746C156.094 117.568 152.243 121.418 147.422 121.418C142.6 121.418 138.75 117.568 138.75 112.746C138.75 107.919 142.6 104.074 147.422 104.074Z" fill="#EF7C00"/>
<path fill-rule="evenodd" clip-rule="evenodd" d="M152.007 104.074L136.704 119.371L140.797 123.459L156.094 108.162L152.007 104.074ZM152.816 86.7303C152.049 86.7303 151.314 87.035 150.772 87.5771C150.23 88.1192 149.925 88.8543 149.925 89.6209C149.925 90.3875 150.23 91.1226 150.772 91.6647C151.314 92.2068 152.049 92.5115 152.816 92.5115H159.366C160.133 92.5115 160.868 92.2068 161.41 91.6647C161.952 91.1226 162.257 90.3875 162.257 89.6209C162.257 88.8543 161.952 88.1192 161.41 87.5771C160.868 87.035 160.133 86.7303 159.366 86.7303H152.816ZM135.906 86.7303C135.139 86.7303 134.404 87.035 133.862 87.5771C133.32 88.1192 133.015 88.8543 133.015 89.6209C133.015 90.3875 133.32 91.1226 133.862 91.6647C134.404 92.2068 135.139 92.5115 135.906 92.5115H142.456C143.223 92.5115 143.958 92.2068 144.5 91.6647C145.042 91.1226 145.347 90.3875 145.347 89.6209C145.347 88.8543 145.042 88.1192 144.5 87.5771C143.958 87.035 143.223 86.7303 142.456 86.7303H135.906ZM112.688 69.3519C111.924 69.3641 111.195 69.6787 110.662 70.227C110.129 70.7753 109.835 71.5125 109.844 72.2771V95.4021C109.844 96.1688 110.149 96.9038 110.691 97.4459C111.233 97.988 111.968 98.2928 112.735 98.2928C113.501 98.2928 114.236 97.988 114.779 97.4459C115.321 96.9038 115.625 96.1688 115.625 95.4021V72.2771C115.63 71.8907 115.557 71.5072 115.411 71.1494C115.265 70.7916 115.049 70.4666 114.775 70.1939C114.501 69.9211 114.175 69.7062 113.817 69.5615C113.458 69.4169 113.075 69.3457 112.688 69.3519Z" fill="#EF7C00"/>
<path d="M14.4531 34.6992C13.6865 34.6992 12.9512 35.004 12.4091 35.5461C11.867 36.0882 11.5625 36.8232 11.5625 37.5898V135.871C11.5625 136.638 11.867 137.373 12.4091 137.915C12.9512 138.457 13.6865 138.762 14.4531 138.762H170.547C171.314 138.762 172.049 138.457 172.591 137.915C173.133 137.373 173.438 136.638 173.438 135.871V37.5898C173.438 36.8232 173.133 36.0882 172.591 35.5461C172.049 35.004 171.314 34.6992 170.547 34.6992H14.4531ZM17.3438 40.4805H167.656V132.98H17.3438V40.4805Z" fill="#EF7C00"/>
</svg>
