<svg width="185" height="185" viewBox="0 0 185 185" fill="none" xmlns="http://www.w3.org/2000/svg">
<g clip-path="url(#clip0_171_9087)">
<path d="M169.583 0H15.4167C14.3945 0 13.4142 0.406063 12.6914 1.12886C11.9686 1.85166 11.5625 2.83198 11.5625 3.85417V181.146C11.5625 182.168 11.9686 183.148 12.6914 183.871C13.4142 184.594 14.3945 185 15.4167 185H169.583C170.606 185 171.586 184.594 172.309 183.871C173.031 183.148 173.438 182.168 173.438 181.146V3.85417C173.438 2.83198 173.031 1.85166 172.309 1.12886C171.586 0.406063 170.606 0 169.583 0ZM19.2708 7.70833H165.729V43.5H93H19.2708V7.70833ZM19.2708 177.292V50H93H165.729V177.292H19.2708Z" fill="#EF7C00"/>
<path d="M92.7083 34.4167C96.9655 34.4167 100.417 30.9655 100.417 26.7083C100.417 22.4511 96.9655 19 92.7083 19C88.4511 19 85 22.4511 85 26.7083C85 30.9655 88.4511 34.4167 92.7083 34.4167Z" fill="#EF7C00"/>
<path d="M25 55.9244V169.88C25 170.942 25.8607 171.804 26.9244 171.804C70.519 171.804 114.117 171.804 157.584 171.804C158.647 171.804 159.508 170.942 159.508 169.88V55.9244C159.508 54.8618 158.647 54 157.584 54H26.9244C25.8607 54.0004 25 54.8618 25 55.9244ZM51.2859 167.956C46.5731 167.956 42.6303 164.592 41.736 160.139H51.2859H95.64H105.19C104.295 164.592 100.353 167.956 95.64 167.956H51.2859ZM41.736 148.474H51.2859H95.64H105.19C104.295 152.927 100.353 156.291 95.64 156.291H51.2859C46.5731 156.291 42.6306 152.927 41.736 148.474ZM41.736 136.809H51.2859H95.64H105.19C104.295 141.262 100.353 144.626 95.64 144.626H51.2859C46.5731 144.625 42.6306 141.262 41.736 136.809ZM41.736 125.144H105.19C104.296 129.597 100.353 132.961 95.6404 132.961H51.2859C46.5731 132.961 42.6306 129.597 41.736 125.144ZM135.146 113.861V104.311C139.6 105.206 142.964 109.148 142.964 113.861V158.215C142.964 162.927 139.6 166.869 135.146 167.765V158.215V113.861ZM131.298 158.215C131.298 162.927 127.934 166.868 123.482 167.765V104.311C127.934 105.207 131.298 109.148 131.298 113.861V158.215ZM28.8485 57.8489H155.659V167.956H142.677C145.223 165.485 146.812 162.034 146.812 158.215V113.861C146.812 106.367 140.716 100.271 133.222 100.271C132.158 100.271 131.297 101.133 131.297 102.196V104.406C128.826 101.86 125.376 100.271 121.557 100.271C120.494 100.271 119.633 101.133 119.633 102.196V167.956H105.095C107.64 165.485 109.23 162.034 109.23 158.215C109.23 157.152 108.369 156.291 107.305 156.291H105.095C107.64 153.819 109.23 150.369 109.23 146.55C109.23 145.487 108.369 144.625 107.305 144.625H105.095C107.64 142.154 109.23 138.704 109.23 134.885C109.23 133.822 108.369 132.96 107.305 132.96H105.095C107.64 130.489 109.23 127.039 109.23 123.22C109.23 122.157 108.369 121.295 107.305 121.295H88.292C97.7307 116.054 104.139 105.991 104.139 94.451C104.139 77.5459 90.37 63.7924 73.4462 63.7924C56.5392 63.7924 42.7857 77.5459 42.7857 94.451C42.7857 105.991 49.1869 116.054 58.6158 121.295H39.6193C38.5556 121.295 37.6949 122.157 37.6949 123.22C37.6949 127.039 39.284 130.489 41.8296 132.96H39.6193C38.5556 132.96 37.6949 133.822 37.6949 134.885C37.6949 138.704 39.284 142.154 41.8296 144.625H39.6193C38.5556 144.625 37.6949 145.487 37.6949 146.55C37.6949 150.369 39.284 153.819 41.8296 156.291H39.6193C38.5556 156.291 37.6949 157.152 37.6949 158.215C37.6949 162.034 39.284 165.485 41.8296 167.956H28.8485V57.8489ZM73.4472 121.296C58.6639 121.296 46.6352 109.254 46.6352 94.4514C46.6352 79.668 58.6639 67.6412 73.4472 67.6412C88.2494 67.6412 100.291 79.668 100.291 94.4514C100.291 109.254 88.2494 121.296 73.4472 121.296Z" fill="#EF7C00"/>
<path d="M92.9955 37.7722C98.9976 37.7722 103.882 32.8892 103.882 26.8861C103.882 20.883 98.9976 16 92.9955 16C86.9935 16 82.1095 20.883 82.1095 26.8861C82.1095 32.8892 86.9935 37.7722 92.9955 37.7722ZM92.9955 19.8485C96.8762 19.8485 100.033 23.0054 100.033 26.8861C100.033 30.7668 96.8762 33.9233 92.9955 33.9233C89.1149 33.9233 85.958 30.7664 85.958 26.8857C85.958 23.0051 89.1149 19.8485 92.9955 19.8485ZM30.9244 21.2147C29.8607 21.2147 29 22.0765 29 23.1391V30.6323C29 31.695 29.8607 32.5568 30.9244 32.5568C31.9882 32.5568 32.8489 31.695 32.8489 30.6323V23.1388C32.8489 22.0761 31.9882 21.2147 30.9244 21.2147ZM41.5399 21.2147C40.4761 21.2147 39.6155 22.0765 39.6155 23.1391V30.6323C39.6155 31.695 40.4761 32.5568 41.5399 32.5568C42.6036 32.5568 43.4643 31.695 43.4643 30.6323V23.1388C43.4643 22.0761 42.6036 21.2147 41.5399 21.2147ZM52.1554 21.2147C51.0916 21.2147 50.2309 22.0765 50.2309 23.1391V30.6323C50.2309 31.695 51.0916 32.5568 52.1554 32.5568C53.2191 32.5568 54.0798 31.695 54.0798 30.6323V23.1388C54.0798 22.0761 53.2191 21.2147 52.1554 21.2147ZM133.836 32.5564C134.899 32.5564 135.76 31.6946 135.76 30.632V23.1388C135.76 22.0761 134.899 21.2143 133.836 21.2143C132.772 21.2143 131.911 22.0761 131.911 23.1388V30.632C131.911 31.6946 132.772 32.5564 133.836 32.5564ZM144.451 32.5564C145.515 32.5564 146.376 31.6946 146.376 30.632V23.1388C146.376 22.0761 145.515 21.2143 144.451 21.2143C143.387 21.2143 142.527 22.0761 142.527 23.1388V30.632C142.527 31.6946 143.387 32.5564 144.451 32.5564ZM155.067 32.5564C156.13 32.5564 156.991 31.6946 156.991 30.632V23.1388C156.991 22.0761 156.13 21.2143 155.067 21.2143C154.003 21.2143 153.142 22.0761 153.142 23.1388V30.632C153.143 31.6946 154.003 32.5564 155.067 32.5564ZM74.1982 81.5608C67.3185 81.5608 61.7222 87.1578 61.7222 94.0375C61.7222 100.925 67.3185 106.528 74.1982 106.528C81.0855 106.528 86.6889 100.925 86.6889 94.0375C86.6889 87.1578 81.0855 81.5608 74.1982 81.5608ZM74.1982 102.679C69.442 102.679 65.5707 98.8023 65.5707 94.0375C65.5707 89.2795 69.442 85.4093 74.1982 85.4093C78.9637 85.4093 82.8404 89.2795 82.8404 94.0375C82.8404 98.802 78.9637 102.679 74.1982 102.679Z" fill="#EF7C00"/>
</g>
<defs>
<clipPath id="clip0_171_9087">
<rect width="185" height="185" fill="white"/>
</clipPath>
</defs>
</svg>
