<svg width="30" height="30" viewBox="0 0 30 30" fill="none" xmlns="http://www.w3.org/2000/svg">
<path d="M19.2719 24.7151C19.2709 23.9745 19.4693 23.2475 19.8457 22.6097L10.3824 17.0981C10.0163 17.7268 9.49201 18.2483 8.86124 18.6108C8.23048 18.9733 7.51566 19.1642 6.78815 19.164C5.68416 19.1635 4.62496 18.7249 3.84433 17.9442C3.06369 17.1636 2.62544 16.1048 2.625 15.0008C2.62544 13.897 3.06445 12.8386 3.84513 12.0582C4.62582 11.2778 5.68432 10.8393 6.78815 10.8393C7.5159 10.8389 8.231 11.0295 8.86205 11.392C9.4931 11.7546 10.0177 12.2763 10.384 12.9051L19.8392 7.38545C19.4671 6.74924 19.271 6.0252 19.2719 5.28815C19.2721 4.74123 19.3804 4.19959 19.5899 3.69439C19.7994 3.18918 20.106 2.7301 20.4929 2.34352C20.8798 1.95694 21.3392 1.65043 21.8445 1.44133C22.3499 1.23223 22.8914 1.12478 23.4383 1.125C23.9849 1.125 24.5263 1.2325 25.0313 1.44174C25.5363 1.65097 25.9949 1.95773 26.3813 2.34433C26.7678 2.73093 27.0745 3.19011 27.2835 3.69519C27.4925 4.20027 27.6001 4.74152 27.5998 5.28815C27.6001 5.83469 27.4926 6.37571 27.2835 6.8807C27.0745 7.38568 26.7678 7.84469 26.3813 8.23116C25.9948 8.61762 25.5362 8.92389 25.0313 9.13294C24.5263 9.342 23.9849 9.44949 23.4383 9.44927C22.7103 9.44969 21.9951 9.25948 21.3636 8.89731C20.732 8.53514 20.2066 8.01402 19.8392 7.38545L10.384 12.9051C10.755 13.5411 10.9505 14.2645 10.9497 15.0008C10.9509 15.7374 10.7547 16.461 10.3824 17.0965L19.8457 22.6081C20.2123 21.9807 20.7372 21.4604 21.3676 21.0991C21.998 20.7377 22.7117 20.548 23.4383 20.5487C23.9851 20.5487 24.527 20.6565 25.0321 20.8658C25.5372 21.0752 25.9957 21.3821 26.3821 21.7688C26.7686 22.1556 27.0754 22.6148 27.2843 23.1201C27.4932 23.6254 27.6003 24.1667 27.5998 24.7135C27.5998 25.8171 27.1617 26.8757 26.3813 27.6561C25.6009 28.4365 24.542 28.875 23.4383 28.875C22.3343 28.8754 21.2757 28.4373 20.4945 27.6573C19.7132 26.8773 19.2732 25.8191 19.2719 24.7151V24.7151Z" stroke="#1A1A18" stroke-width="1.5" stroke-linecap="round"/>
</svg>
