<svg width="100" height="100" viewBox="0 0 100 100" fill="none" xmlns="http://www.w3.org/2000/svg">
<g clip-path="url(#clip0_171_8999)">
<path d="M49.9998 81.2497C46.6368 81.2507 43.3148 80.5116 40.2695 79.0847C37.2242 77.6578 34.5303 75.5781 32.3789 72.9933C30.2275 70.4084 28.6714 67.3818 27.821 64.1281C26.9706 60.8743 26.8467 57.4733 27.4581 54.1664C31.4581 32.5205 61.354 28.333 70.8331 48.708C72.4505 52.2027 73.1611 56.0485 72.8994 59.8903C72.6378 63.7322 71.4122 67.4461 69.336 70.6892C67.2598 73.9323 64.3998 76.5998 61.0203 78.4456C57.6407 80.2914 53.8505 81.2557 49.9998 81.2497Z" fill="white"/>
<path d="M72.9166 58.333C72.9265 62.7722 71.6375 67.1173 69.2083 70.833C68.5624 71.8955 62.7083 74.9996 56.2499 74.9996C52.0967 74.9982 48.0218 73.8682 44.461 71.7303C40.9003 69.5924 37.9875 66.5269 36.034 62.8618C34.0805 59.1966 33.1598 55.0694 33.3703 50.9214C33.5808 46.7735 34.9146 42.7607 37.2291 39.3121C40.6777 36.9976 44.6905 35.6638 48.8384 35.4533C52.9864 35.2428 57.1135 36.1635 60.7787 38.117C64.4439 40.0705 67.5093 42.9833 69.6473 46.5441C71.7852 50.1048 72.9152 54.1797 72.9166 58.333Z" fill="white"/>
<path d="M50 29.1665C33.3333 29.1665 33.3333 16.6665 50 16.6665C66.6667 16.6665 66.6667 29.1665 50 29.1665ZM41.6667 22.9165C42.2083 23.604 45.0625 24.9998 50 24.9998C54.9375 24.9998 57.75 23.604 58.3333 22.9165C57.8125 22.229 54.9583 20.8332 50 20.8332C45.0417 20.8332 42.25 22.229 41.6667 22.9165Z" fill="white"/>
<path d="M27.458 62.4998H15.6247C14.2433 62.4998 12.9186 61.9511 11.9418 60.9744C10.9651 59.9976 10.4163 58.6728 10.4163 57.2915V54.1665H27.458C26.958 56.9218 26.958 59.7446 27.458 62.4998ZM29.1663 48.7082C28.3712 50.4491 27.7973 52.2829 27.458 54.1665H10.4163C8.2062 54.1665 6.08659 53.2885 4.52378 51.7257C2.96098 50.1629 2.08301 48.0433 2.08301 45.8332V41.6665C6.04134 44.3123 7.66634 45.8332 10.833 45.8332C22.9163 45.8332 26.0622 45.0207 29.1663 48.7082Z" fill="white"/>
<path d="M27.4997 47.229L27.208 47.0415C27.3126 47.0916 27.4106 47.1546 27.4997 47.229Z" fill="white"/>
<path d="M28.0413 47.6248C27.7932 48.4023 27.5983 49.1958 27.458 49.9998H10.4163C8.2062 49.9998 6.08659 49.1219 4.52378 47.5591C2.96098 45.9963 2.08301 43.8766 2.08301 41.6665C9.64551 46.729 6.39551 45.8332 22.9163 45.8332C24.781 45.8165 26.5932 46.45 28.0413 47.6248ZM30.7913 70.8332H21.8747C20.4933 70.8332 19.1686 70.2844 18.1918 69.3077C17.2151 68.3309 16.6663 67.0062 16.6663 65.6248V62.4998H27.458C27.9987 65.4731 29.1324 68.3072 30.7913 70.8332Z" fill="white"/>
<path d="M27.458 54.1665C27.1986 55.54 27.0731 56.9354 27.083 58.3332H15.6247C14.424 58.3334 13.2601 57.9188 12.33 57.1595C11.3999 56.4002 10.7606 55.3429 10.5205 54.1665H27.458ZM28.6455 66.6665H21.8747C20.674 66.6667 19.5101 66.2521 18.58 65.4929C17.6499 64.7336 17.0106 63.6763 16.7705 62.4998H27.458C27.7236 63.9226 28.1212 65.3175 28.6455 66.6665Z" fill="white"/>
<path d="M89.583 54.1665V57.2915C89.583 58.6728 89.0343 59.9976 88.0575 60.9744C87.0808 61.9511 85.756 62.4998 84.3747 62.4998H72.5413C73.0414 59.7446 73.0414 56.9218 72.5413 54.1665H89.583ZM97.9163 41.6665V45.8332C97.9163 48.0433 97.0384 50.1629 95.4756 51.7257C93.9128 53.2885 91.7931 54.1665 89.583 54.1665H72.5413C72.2021 52.2829 71.6281 50.4491 70.833 48.7082C73.9788 44.979 77.083 45.8332 89.1663 45.8332C92.3747 45.8332 93.9163 44.3332 97.9163 41.6665ZM83.333 62.4998V65.6248C83.333 67.0062 82.7843 68.3309 81.8075 69.3077C80.8308 70.2844 79.506 70.8332 78.1247 70.8332H69.208C70.8575 68.3023 71.9904 65.4702 72.5413 62.4998H83.333Z" fill="white"/>
<path d="M47.9165 50V45.8333C47.9165 45.2808 48.136 44.7509 48.5267 44.3602C48.9174 43.9695 49.4473 43.75 49.9998 43.75C50.5524 43.75 51.0823 43.9695 51.473 44.3602C51.8637 44.7509 52.0832 45.2808 52.0832 45.8333V50C52.0832 50.5525 51.8637 51.0824 51.473 51.4731C51.0823 51.8638 50.5524 52.0833 49.9998 52.0833C49.4473 52.0833 48.9174 51.8638 48.5267 51.4731C48.136 51.0824 47.9165 50.5525 47.9165 50ZM47.9165 70.8333V66.6667C47.9165 66.1141 48.136 65.5842 48.5267 65.1935C48.9174 64.8028 49.4473 64.5833 49.9998 64.5833C50.5524 64.5833 51.0823 64.8028 51.473 65.1935C51.8637 65.5842 52.0832 66.1141 52.0832 66.6667V70.8333C52.0832 71.3859 51.8637 71.9158 51.473 72.3065C51.0823 72.6972 50.5524 72.9167 49.9998 72.9167C49.4473 72.9167 48.9174 72.6972 48.5267 72.3065C48.136 71.9158 47.9165 71.3859 47.9165 70.8333Z" fill="white"/>
<path d="M52.0832 68.7498H43.7498C43.1973 68.7498 42.6674 68.5303 42.2767 68.1396C41.886 67.7489 41.6665 67.219 41.6665 66.6665C41.6665 66.114 41.886 65.5841 42.2767 65.1934C42.6674 64.8027 43.1973 64.5832 43.7498 64.5832H52.0832C52.6357 64.5832 53.1656 64.3637 53.5563 63.973C53.947 63.5823 54.1665 63.0524 54.1665 62.4998C54.1665 61.9473 53.947 61.4174 53.5563 61.0267C53.1656 60.636 52.6357 60.4165 52.0832 60.4165H47.9165C46.2589 60.4165 44.6692 59.758 43.4971 58.5859C42.325 57.4138 41.6665 55.8241 41.6665 54.1665C41.6665 52.5089 42.325 50.9192 43.4971 49.7471C44.6692 48.575 46.2589 47.9165 47.9165 47.9165H56.2498C56.8024 47.9165 57.3323 48.136 57.723 48.5267C58.1137 48.9174 58.3332 49.4473 58.3332 49.9998C58.3332 50.5524 58.1137 51.0823 57.723 51.473C57.3323 51.8637 56.8024 52.0832 56.2498 52.0832H47.9165C47.364 52.0832 46.8341 52.3027 46.4434 52.6934C46.0527 53.0841 45.8332 53.614 45.8332 54.1665C45.8332 54.719 46.0527 55.2489 46.4434 55.6396C46.8341 56.0303 47.364 56.2498 47.9165 56.2498H52.0832C53.7408 56.2498 55.3305 56.9083 56.5026 58.0804C57.6747 59.2525 58.3332 60.8422 58.3332 62.4998C58.3332 64.1574 57.6747 65.7471 56.5026 66.9193C55.3305 68.0914 53.7408 68.7498 52.0832 68.7498Z" fill="white"/>
<path d="M29.1663 48.7082L28.6038 49.9998H10.4163C8.2062 49.9998 6.08659 49.1219 4.52378 47.5591C2.96098 45.9963 2.08301 43.8766 2.08301 41.6665L6.24967 44.4373C11.2705 47.8332 24.1663 43.9165 27.4372 47.1873C28.0835 47.6087 28.6659 48.1209 29.1663 48.7082ZM72.5413 54.1665C72.8007 55.54 72.9263 56.9354 72.9163 58.3332H84.3747C85.5931 58.3577 86.7816 57.9542 87.7333 57.1929C88.685 56.4316 89.3395 55.3606 89.583 54.1665H72.5413ZM71.3538 66.6665H78.1247C79.3431 66.6911 80.5316 66.2876 81.4833 65.5263C82.435 64.7649 83.0895 63.694 83.333 62.4998H72.5413C72.2757 63.9226 71.8782 65.3175 71.3538 66.6665ZM70.833 48.7082L71.3955 49.9998H89.583C91.7931 49.9998 93.9128 49.1219 95.4756 47.5591C97.0384 45.9963 97.9163 43.8766 97.9163 41.6665L93.7497 44.4373C88.7288 47.8332 75.833 43.9165 72.5622 47.1873C71.9158 47.6087 71.3335 48.1209 70.833 48.7082Z" fill="white"/>
<path d="M27.4165 47.1875C27.479 47.1875 27.5623 47.2917 27.4165 47.1875V47.1875Z" fill="white"/>
<path d="M49.9998 29.1665C66.6665 29.1665 66.6665 16.6665 49.9998 16.6665C33.3331 16.6665 33.3331 29.1665 49.9998 29.1665ZM49.9998 20.8332C54.8956 20.8332 57.7498 22.229 58.3331 22.9165C57.8123 23.604 54.9581 24.9998 49.9998 24.9998C45.0415 24.9998 42.2498 23.604 41.6665 22.9165C42.2498 22.229 45.104 20.8332 49.9998 20.8332ZM98.8956 39.8332C97.4373 39.0415 96.6873 39.979 92.6456 42.7082C90.5623 44.0623 90.1665 43.7498 77.1248 43.7498C75.1019 43.7456 73.123 44.34 71.4373 45.4582C69.2113 41.7751 66.0723 38.729 62.3239 36.6147C58.5756 34.5004 54.345 33.3895 50.0415 33.3895C45.738 33.3895 41.5073 34.5004 37.759 36.6147C34.0107 38.729 30.8716 41.7751 28.6456 45.4582C26.9481 44.3321 24.9535 43.7373 22.9165 43.7498C9.99981 43.7498 9.43731 44.0832 7.39565 42.7082C2.97898 39.7498 2.49982 39.0832 1.14565 39.8332C-0.208518 40.5832 -0.000184734 41.7707 -0.000184734 45.8332C-0.000674848 48.2345 0.82853 50.5623 2.34709 52.4226C3.86566 54.2828 5.98031 55.5612 8.33315 56.0415V57.2915C8.31505 59.0577 8.93868 60.7705 10.0882 62.1116C11.2377 63.4527 12.8349 64.3309 14.5831 64.5832V65.729C14.6105 67.6448 15.3908 69.4728 16.7553 70.8178C18.1198 72.1628 19.9589 72.9167 21.8748 72.9165H29.729C32.0457 76.1261 35.0914 78.7396 38.6156 80.5421C42.1397 82.3447 46.0415 83.2846 49.9998 83.2846C53.9582 83.2846 57.8599 82.3447 61.3841 80.5421C64.9082 78.7396 67.9539 76.1261 70.2706 72.9165H78.1248C80.0587 72.9165 81.9133 72.1483 83.2808 70.7808C84.6482 69.4134 85.4165 67.5587 85.4165 65.6248V64.5832C87.1469 64.3334 88.73 63.4702 89.8772 62.1509C91.0244 60.8316 91.6594 59.144 91.6665 57.3957V56.1457C94.0369 55.6619 96.1651 54.3682 97.6857 52.4864C99.2063 50.6047 100.024 48.2524 99.9998 45.8332C99.9998 41.5415 100.291 40.5623 98.8956 39.8332ZM4.16648 45.8332C4.16648 45.479 3.97898 45.4373 5.06231 46.1665C8.49981 48.4998 10.8956 47.9165 22.9165 47.9165C24.3024 47.9121 25.6479 48.3827 26.729 49.2498C26.3748 50.1665 26.0831 51.104 25.8123 52.0832H10.4165C8.75888 52.0832 7.16917 51.4247 5.99706 50.2526C4.82496 49.0805 4.16648 47.4908 4.16648 45.8332ZM12.4998 57.2915V56.2498H25.104C24.9581 57.6349 24.9581 59.0314 25.104 60.4165H15.6248C14.796 60.4165 14.0012 60.0873 13.4151 59.5012C12.8291 58.9152 12.4998 58.1203 12.4998 57.2915ZM21.8748 68.7498C21.046 68.7498 20.2512 68.4206 19.6651 67.8346C19.0791 67.2485 18.7498 66.4536 18.7498 65.6248V64.5832H25.8123C26.184 66.015 26.6861 67.4097 27.3123 68.7498H21.8748ZM49.9998 79.1665C45.8794 79.1665 41.8515 77.9447 38.4254 75.6555C34.9994 73.3663 32.3291 70.1125 30.7523 66.3057C29.1755 62.499 28.7629 58.3101 29.5668 54.2688C30.3706 50.2275 32.3548 46.5154 35.2684 43.6018C38.182 40.6882 41.8942 38.704 45.9354 37.9001C49.9767 37.0963 54.1656 37.5089 57.9724 39.0857C61.7792 40.6625 65.0329 43.3328 67.3221 46.7588C69.6113 50.1848 70.8331 54.2127 70.8331 58.3332C70.8331 63.8585 68.6382 69.1576 64.7312 73.0646C60.8242 76.9716 55.5252 79.1665 49.9998 79.1665ZM81.2498 65.6248C81.2498 66.4536 80.9206 67.2485 80.3345 67.8346C79.7485 68.4206 78.9536 68.7498 78.1248 68.7498H72.6873C73.3136 67.4097 73.8157 66.015 74.1873 64.5832H81.2498V65.6248ZM87.4998 57.2915C87.4998 58.1203 87.1706 58.9152 86.5845 59.5012C85.9985 60.0873 85.2036 60.4165 84.3748 60.4165H74.9998C75.1456 59.0314 75.1456 57.6349 74.9998 56.2498H87.4998V57.2915ZM95.8331 45.8332C95.8331 47.4908 95.1747 49.0805 94.0026 50.2526C92.8305 51.4247 91.2407 52.0832 89.5831 52.0832H74.1873C73.9165 51.104 73.6248 50.1665 73.2706 49.2498C74.3517 48.3827 75.6973 47.9121 77.0831 47.9165C88.979 47.9165 91.4998 48.4998 94.9373 46.1665C96.0206 45.4373 95.8331 45.479 95.8331 45.8332Z" fill="#EF7C00"/>
<path d="M47.9165 52.0833H56.2498C56.8024 52.0833 57.3323 51.8638 57.723 51.4731C58.1137 51.0824 58.3332 50.5525 58.3332 50C58.3332 49.4475 58.1137 48.9176 57.723 48.5269C57.3323 48.1362 56.8024 47.9167 56.2498 47.9167H52.0832V45.8333C52.0832 45.2808 51.8637 44.7509 51.473 44.3602C51.0823 43.9695 50.5524 43.75 49.9998 43.75C49.4473 43.75 48.9174 43.9695 48.5267 44.3602C48.136 44.7509 47.9165 45.2808 47.9165 45.8333V47.9167C46.2589 47.9167 44.6692 48.5751 43.4971 49.7472C42.325 50.9194 41.6665 52.5091 41.6665 54.1667C41.6665 55.8243 42.325 57.414 43.4971 58.5861C44.6692 59.7582 46.2589 60.4167 47.9165 60.4167H52.0832C52.6357 60.4167 53.1656 60.6362 53.5563 61.0269C53.947 61.4176 54.1665 61.9475 54.1665 62.5C54.1665 63.0525 53.947 63.5824 53.5563 63.9731C53.1656 64.3638 52.6357 64.5833 52.0832 64.5833H43.7498C43.1973 64.5833 42.6674 64.8028 42.2767 65.1935C41.886 65.5842 41.6665 66.1141 41.6665 66.6667C41.6665 67.2192 41.886 67.7491 42.2767 68.1398C42.6674 68.5305 43.1973 68.75 43.7498 68.75H47.9165V70.8333C47.9165 71.3859 48.136 71.9158 48.5267 72.3065C48.9174 72.6972 49.4473 72.9167 49.9998 72.9167C50.5524 72.9167 51.0823 72.6972 51.473 72.3065C51.8637 71.9158 52.0832 71.3859 52.0832 70.8333V68.75C53.7408 68.75 55.3305 68.0915 56.5026 66.9194C57.6747 65.7473 58.3332 64.1576 58.3332 62.5C58.3332 60.8424 57.6747 59.2527 56.5026 58.0806C55.3305 56.9085 53.7408 56.25 52.0832 56.25H47.9165C47.364 56.25 46.8341 56.0305 46.4434 55.6398C46.0527 55.2491 45.8332 54.7192 45.8332 54.1667C45.8332 53.6141 46.0527 53.0842 46.4434 52.6935C46.8341 52.3028 47.364 52.0833 47.9165 52.0833Z" fill="#EF7C00"/>
</g>
<defs>
<clipPath id="clip0_171_8999">
<rect width="100" height="100" fill="white"/>
</clipPath>
</defs>
</svg>
