<svg width="100" height="100" viewBox="0 0 100 100" fill="none" xmlns="http://www.w3.org/2000/svg">
<path d="M52.1875 12.5L63.15 33.0516L50 34.3656L36.8516 33.0516L47.8125 12.5H52.1875ZM73.1359 34.1437L71.9391 34.3422L66.6781 33.0281L57.5562 15.9234L82.9578 33.5938C79.6736 33.4172 76.3799 33.6016 73.1359 34.1437ZM50 4.6875C50.4144 4.6875 50.8118 4.85212 51.1049 5.14515C51.3979 5.43817 51.5625 5.8356 51.5625 6.25V9.375H48.4375V6.25C48.4375 5.8356 48.6021 5.43817 48.8951 5.14515C49.1882 4.85212 49.5856 4.6875 50 4.6875ZM28.0609 34.3422L26.8641 34.1437C23.6202 33.6002 20.3264 33.4158 17.0422 33.5938L42.4437 15.9234L33.3219 33.0281L28.0609 34.3422ZM48.4375 37.3438L49.8438 37.4844C49.9476 37.4953 50.0524 37.4953 50.1562 37.4844L51.5625 37.3438V75H48.4375V37.3438ZM18.75 57.8125V64.0625C18.7501 64.4769 18.9148 64.8742 19.2078 65.1672L31.7078 77.6672C32.0008 77.9602 32.3981 78.1249 32.8125 78.125H90.625C91.0394 78.125 91.4368 78.2896 91.7299 78.5826C92.0229 78.8757 92.1875 79.2731 92.1875 79.6875V82.8125H30.2922L14.0625 68.0594V56.25H17.1875C17.6019 56.25 17.9993 56.4146 18.2924 56.7076C18.5854 57.0007 18.75 57.3981 18.75 57.8125ZM7.8125 56.25H10.9375V68.75C10.9374 68.9677 10.9828 69.183 11.0708 69.3821C11.1588 69.5812 11.2874 69.7598 11.4484 69.9062L28.6359 85.5312C28.9237 85.7928 29.2986 85.9377 29.6875 85.9375H92.1875V89.0625H27.2094L7.8125 69.6656V56.25ZM34.375 95.3125H28.125V92.1875H34.375V95.3125ZM51.5625 95.3344L48.4375 95.3781V92.1875H51.5625V95.3344ZM85.9375 95.3125V92.1875H92.1875V95.3125H85.9375Z" fill="#EF7C00"/>
</svg>
