<svg width="40" height="30" viewBox="0 0 40 30" fill="none" xmlns="http://www.w3.org/2000/svg">
<rect x="0.5" y="0.5" width="39" height="29" rx="3.5" fill="#006FCF" stroke="#F3F3F3"/>
<path fill-rule="evenodd" clip-rule="evenodd" d="M8.18132 21.6703V15.4944H14.6114L15.3013 16.409L16.014 15.4944H39.3537V21.2444C39.3537 21.2444 38.7434 21.6641 38.0374 21.6703H25.1137L24.3359 20.6968V21.6703H21.7871V20.0084C21.7871 20.0084 21.4389 20.2404 20.6862 20.2404H19.8186V21.6703H15.9595L15.2706 20.7361L14.5711 21.6703H8.18132ZM0.689453 10.8397L2.13618 7.40186H4.63814L5.45918 9.32758V7.40186H8.56935L9.05811 8.79371L9.53195 7.40186H23.4934V8.10159C23.4934 8.10159 24.2273 7.40186 25.4335 7.40186L29.9635 7.41799L30.7704 9.31851V7.40186H33.3731L34.0895 8.49355V7.40186H36.7161V13.5777H34.0895L33.403 12.4825V13.5777H29.5789L29.1944 12.6042H28.1664L27.7881 13.5777H25.1947C24.1569 13.5777 23.4934 12.8923 23.4934 12.8923V13.5777H19.5833L18.8072 12.6042V13.5777H4.26749L3.8832 12.6042H2.85845L2.47687 13.5777H0.689453V10.8397ZM0.696828 12.7875L2.64815 8.16321H4.12749L6.07695 12.7875H4.77855L4.42038 11.8615H2.32728L1.96724 12.7875H0.696828ZM4.00819 10.8576L3.37018 9.23943L2.73032 10.8576H4.00819ZM6.21135 12.7867V8.16243L8.01667 8.16927L9.06671 11.1507L10.0916 8.16243H11.8825V12.7867H10.7483V9.37936L9.54595 12.7867H8.55124L7.34558 9.37936V12.7867H6.21135ZM12.6585 12.7867V8.16243H16.3597V9.19682H13.8047V9.98782H16.3V10.9614H13.8047V11.7828H16.3597V12.7867H12.6585ZM17.0164 12.7875V8.16321H19.5404C20.3767 8.16321 21.1261 8.69033 21.1261 9.66345C21.1261 10.4953 20.4943 11.0312 19.8818 11.0838L21.3742 12.7875H19.9881L18.6282 11.1447H18.1506V12.7875H17.0164ZM19.4471 9.1976H18.1506V10.1711H19.4639C19.6912 10.1711 19.9844 9.99158 19.9844 9.68437C19.9844 9.44557 19.7581 9.1976 19.4471 9.1976ZM22.7472 12.7867H21.5891V8.16243H22.7472V12.7867ZM25.4932 12.7867H25.2432C24.0337 12.7867 23.2994 11.8155 23.2994 10.4936C23.2994 9.13906 24.0255 8.16243 25.5529 8.16243H26.8065V9.25766H25.5071C24.887 9.25766 24.4485 9.75087 24.4485 10.505C24.4485 11.4006 24.9499 11.7767 25.6723 11.7767H25.9708L25.4932 12.7867ZM26.01 12.7875L27.9613 8.16321H29.4406L31.3901 12.7875H30.0917L29.7335 11.8615H27.6404L27.2804 12.7875H26.01ZM29.3212 10.8576L28.6832 9.23943L28.0434 10.8576H29.3212ZM31.5225 12.7867V8.16243H32.9646L34.8058 11.0678V8.16243H35.9401V12.7867H34.5447L32.6568 9.80528V12.7867H31.5225ZM8.95737 20.8793V16.255H12.6585V17.2894H10.1035V18.0804H12.5988V19.0539H10.1035V19.8753H12.6585V20.8793H8.95737ZM27.0931 20.8793V16.255H30.7942V17.2894H28.2392V18.0804H30.7226V19.0539H28.2392V19.8753H30.7942V20.8793H27.0931ZM12.8022 20.8793L14.6043 18.5957L12.7593 16.255H14.1883L15.287 17.702L16.3895 16.255H17.7626L15.9418 18.5671L17.7472 20.8793H16.3185L15.2516 19.4551L14.2106 20.8793H12.8022ZM17.882 20.8801V16.2558H20.3873C21.4153 16.2558 22.0159 16.9311 22.0159 17.8111C22.0159 18.8735 21.2502 19.4198 20.24 19.4198H19.046V20.8801H17.882ZM20.3034 17.3016H19.046V18.3664H20.2996C20.6309 18.3664 20.863 18.1426 20.863 17.834C20.863 17.5054 20.6297 17.3016 20.3034 17.3016ZM22.5084 20.8793V16.255H25.0324C25.8688 16.255 26.6181 16.7821 26.6181 17.7552C26.6181 18.5871 25.9863 19.1229 25.3738 19.1756L26.8662 20.8793H25.4802L24.1202 19.2364H23.6426V20.8793H22.5084ZM24.9392 17.2894H23.6426V18.2629H24.956C25.1833 18.2629 25.4764 18.0834 25.4764 17.7761C25.4764 17.5373 25.2502 17.2894 24.9392 17.2894ZM31.3196 20.8793V19.8753H33.5895C33.9254 19.8753 34.0708 19.6903 34.0708 19.4874C34.0708 19.293 33.9258 19.0965 33.5895 19.0965H32.5638C31.6721 19.0965 31.1755 18.5428 31.1755 17.7115C31.1755 16.97 31.6303 16.255 32.9552 16.255H35.164L34.6864 17.2955H32.7762C32.411 17.2955 32.2986 17.4908 32.2986 17.6773C32.2986 17.869 32.4375 18.0804 32.7165 18.0804H33.791C34.7849 18.0804 35.2162 18.655 35.2162 19.4076C35.2162 20.2166 34.7356 20.8793 33.7369 20.8793H31.3196ZM35.3162 20.8793V19.8753H37.5862C37.922 19.8753 38.0675 19.6903 38.0675 19.4874C38.0675 19.293 37.9225 19.0965 37.5862 19.0965H36.5604C35.6688 19.0965 35.1722 18.5428 35.1722 17.7115C35.1722 16.97 35.6269 16.255 36.9519 16.255H39.1607L38.6831 17.2955H36.7728C36.4077 17.2955 36.2952 17.4908 36.2952 17.6773C36.2952 17.869 36.4342 18.0804 36.7131 18.0804H37.7877C38.7816 18.0804 39.2129 18.655 39.2129 19.4076C39.2129 20.2166 38.7323 20.8793 37.7335 20.8793H35.3162Z" fill="white"/>
</svg>
