<svg width="40" height="30" viewBox="0 0 40 30" fill="none" xmlns="http://www.w3.org/2000/svg">
<rect x="0.5" y="0.5" width="39" height="29" rx="3.5" fill="white" stroke="#F3F3F3"/>
<path fill-rule="evenodd" clip-rule="evenodd" d="M13.1509 15.2418C13.1509 17.0733 14.4733 18.4935 16.1752 18.4935C16.6563 18.4935 17.0685 18.3907 17.5765 18.1304V16.6997C17.1298 17.186 16.734 17.3822 16.2273 17.3822C15.1016 17.3822 14.3027 16.4946 14.3027 15.2326C14.3027 14.0364 15.1268 13.0927 16.1752 13.0927C16.7083 13.0927 17.1119 13.2995 17.5765 13.7937V12.3637C17.086 12.0931 16.6826 11.981 16.2016 11.981C14.5083 11.981 13.1509 13.43 13.1509 15.2418ZM10.2827 13.7284C10.2827 14.0652 10.4795 14.2431 11.1502 14.513C12.4215 15.0188 12.7983 15.4668 12.7983 16.457C12.7983 17.6631 11.9834 18.503 10.8221 18.503C9.97163 18.503 9.35312 18.1388 8.83821 17.3167L9.56032 16.5605C9.81756 17.1017 10.247 17.3918 10.7801 17.3918C11.2788 17.3918 11.6479 17.0177 11.6479 16.5128C11.6479 16.2511 11.5361 16.0265 11.3127 15.8679C11.2005 15.7928 10.9778 15.6811 10.5401 15.513C9.49037 15.1023 9.13042 14.6627 9.13042 13.8043C9.13042 12.7845 9.90367 12.0189 10.9175 12.0189C11.5458 12.0189 12.1207 12.2524 12.6013 12.7096L12.0164 13.5423C11.7253 13.1875 11.4499 13.0377 11.1152 13.0377C10.6335 13.0377 10.2827 13.336 10.2827 13.7284ZM7.2996 18.3532H8.4173V12.1219H7.2996V18.3532ZM5.01507 16.8029C4.66398 17.1478 4.20773 17.2983 3.48562 17.2983H3.18566V13.1775H3.48562C4.20773 13.1775 4.64605 13.3181 5.01507 13.6816C5.40159 14.0558 5.63402 14.6359 5.63402 15.2327C5.63402 15.831 5.40159 16.4287 5.01507 16.8029ZM3.70943 12.1219H2.06885V18.353H3.70079C4.56857 18.353 5.19505 18.1305 5.74515 17.6336C6.39886 17.0455 6.78537 16.1589 6.78537 15.2419C6.78537 13.4029 5.52201 12.1219 3.70943 12.1219ZM24.9104 12.1219L26.4383 16.3074L27.9861 12.1219H29.1977L26.7223 18.513H26.1209L23.6893 12.1219H24.9104ZM29.7031 18.3531H32.8727V17.2981H30.8199V15.6161H32.7972V14.5607H30.8199V13.1776H32.8727V12.1217H29.7031V18.3531ZM34.7292 14.9906H35.0558C35.7697 14.9906 36.148 14.6533 36.148 14.0269C36.148 13.4205 35.7697 13.1034 35.0735 13.1034H34.7292V14.9906ZM35.2703 12.1217C36.5591 12.1217 37.298 12.7948 37.298 13.9614C37.298 14.9155 36.8345 15.5419 35.9926 15.728L37.7966 18.353H36.4221L34.8751 15.8498H34.7293V18.353H33.6129V12.1217H35.2703Z" fill="#1D1D1B"/>
<path fill-rule="evenodd" clip-rule="evenodd" d="M23.5575 17.045C24.4647 15.5024 24.0503 13.4531 22.6321 12.4667C21.2138 11.4803 19.329 11.9306 18.4218 13.4732C17.5149 15.0154 17.9294 17.0653 19.3476 18.0517C20.7659 19.0381 22.6506 18.5872 23.5575 17.045Z" fill="url(#paint0_linear_213_4417)"/>
<defs>
<linearGradient id="paint0_linear_213_4417" x1="25.1997" y1="14.2524" x2="19.823" y2="11.0905" gradientUnits="userSpaceOnUse">
<stop stop-color="#F6A000"/>
<stop offset="0.623918" stop-color="#E47E02"/>
<stop offset="1" stop-color="#D36002"/>
</linearGradient>
</defs>
</svg>
