<svg width="25" height="25" viewBox="0 0 25 25" fill="none" xmlns="http://www.w3.org/2000/svg">
<path d="M18.8372 25C17.5233 25 16.1395 24.686 14.7093 24.0814C13.314 23.4884 11.907 22.6744 10.5349 21.686C9.17442 20.686 7.86047 19.5698 6.61628 18.3488C5.38372 17.1047 4.26744 15.7907 3.27907 14.4419C2.27907 13.0465 1.47674 11.6512 0.906977 10.3023C0.302326 8.86047 0 7.46512 0 6.15116C0 5.24419 0.162791 4.38372 0.476744 3.5814C0.802326 2.75581 1.32558 1.98837 2.03488 1.32558C2.93023 0.441861 3.95349 0 5.04651 0C5.5 0 5.96512 0.104651 6.36046 0.290698C6.81395 0.5 7.19767 0.813953 7.47674 1.23256L10.1744 5.03488C10.4186 5.37209 10.6047 5.69767 10.7326 6.02326C10.8837 6.37209 10.9651 6.72093 10.9651 7.05814C10.9651 7.5 10.8372 7.93023 10.593 8.33721C10.4186 8.65116 10.1512 8.98837 9.81395 9.32558L9.02326 10.1512C9.03488 10.186 9.04651 10.2093 9.05814 10.2326C9.19767 10.4767 9.47674 10.8953 10.0116 11.5233C10.5814 12.1744 11.1163 12.7674 11.6512 13.314C12.3372 13.9884 12.907 14.5233 13.4419 14.9651C14.1047 15.5233 14.5349 15.8023 14.7907 15.9302L15.6163 15.1512C15.9767 14.7907 16.3256 14.5233 16.6628 14.3488C17.3023 13.9535 18.1163 13.8837 18.9302 14.2209C19.2326 14.3488 19.5581 14.5233 19.907 14.7674L23.7674 17.5116C24.1977 17.8023 24.5116 18.1744 24.6977 18.6163C24.8721 19.0581 24.9535 19.4651 24.9535 19.8721C24.9535 20.4302 24.8256 20.9884 24.5814 21.5116C24.3372 22.0349 24.0349 22.4884 23.6512 22.907C22.9884 23.6395 22.2674 24.1628 21.4302 24.5C20.6279 24.8256 19.7558 25 18.8372 25ZM5.04651 1.74419C4.40698 1.74419 3.81395 2.02326 3.24419 2.5814C2.7093 3.0814 2.33721 3.62791 2.10465 4.22093C1.86046 4.82558 1.74419 5.46512 1.74419 6.15116C1.74419 7.23256 2 8.40698 2.51163 9.61628C3.03488 10.8488 3.76744 12.1279 4.69767 13.407C5.62791 14.686 6.68605 15.9302 7.84884 17.1047C9.01163 18.2558 10.2674 19.3256 11.5581 20.2674C12.814 21.186 14.1047 21.9302 15.3837 22.4651C17.3721 23.314 19.2326 23.5116 20.7674 22.8721C21.3605 22.6279 21.8837 22.2558 22.3605 21.7209C22.6279 21.4302 22.8372 21.1163 23.0116 20.7442C23.1512 20.4535 23.2209 20.1512 23.2209 19.8488C23.2209 19.6628 23.186 19.4767 23.093 19.2674C23.0581 19.1977 22.9884 19.0698 22.7674 18.9186L18.907 16.1744C18.6744 16.0116 18.4651 15.8953 18.2674 15.814C18.0116 15.7093 17.907 15.6047 17.5116 15.8488C17.2791 15.9651 17.0698 16.1395 16.8372 16.3721L15.9535 17.2442C15.5 17.686 14.8023 17.7907 14.2674 17.593L13.9535 17.4535C13.4767 17.1977 12.9186 16.8023 12.3023 16.2791C11.7442 15.8023 11.1395 15.2442 10.407 14.5233C9.83721 13.9419 9.26744 13.3256 8.67442 12.6395C8.12791 12 7.73256 11.4535 7.48837 11L7.34884 10.6512C7.27907 10.3837 7.25581 10.2326 7.25581 10.0698C7.25581 9.65116 7.40698 9.27907 7.69767 8.98837L8.56977 8.0814C8.80233 7.84884 8.97674 7.62791 9.09302 7.43023C9.18605 7.27907 9.22093 7.15116 9.22093 7.03488C9.22093 6.94186 9.18605 6.80233 9.12791 6.66279C9.04651 6.47674 8.9186 6.26744 8.75581 6.04651L6.05814 2.23256C5.94186 2.06977 5.80233 1.95349 5.62791 1.87209C5.44186 1.7907 5.24419 1.74419 5.04651 1.74419Z" fill="#EF7C00"/>
<path d="M20.0581 9.88378C19.5813 9.88378 19.186 9.48843 19.186 9.01168C19.186 8.59308 18.7674 7.72099 18.0697 6.9768C17.3837 6.24424 16.6278 5.81401 15.9883 5.81401C15.5116 5.81401 15.1162 5.41866 15.1162 4.94192C15.1162 4.46517 15.5116 4.06982 15.9883 4.06982C17.1162 4.06982 18.3023 4.67448 19.3371 5.77913C20.3023 6.81401 20.9302 8.08145 20.9302 9.01168C20.9302 9.48843 20.5348 9.88378 20.0581 9.88378Z" fill="#EF7C00"/>
<path d="M24.1278 9.88372C23.6511 9.88372 23.2557 9.48837 23.2557 9.01163C23.2557 5 19.9999 1.74419 15.9883 1.74419C15.5116 1.74419 15.1162 1.34884 15.1162 0.872093C15.1162 0.395349 15.5116 0 15.9883 0C20.9534 0 24.9999 4.04651 24.9999 9.01163C24.9999 9.48837 24.6046 9.88372 24.1278 9.88372Z" fill="#EF7C00"/>
</svg>
