<svg width="25" height="26" viewBox="0 0 25 26" fill="none" xmlns="http://www.w3.org/2000/svg">
<path d="M18.8372 25.5C17.5233 25.5 16.1395 25.186 14.7093 24.5814C13.314 23.9884 11.907 23.1744 10.5349 22.186C9.17442 21.186 7.86047 20.0698 6.61628 18.8488C5.38372 17.6047 4.26744 16.2907 3.27907 14.9419C2.27907 13.5465 1.47674 12.1512 0.906977 10.8023C0.302326 9.36046 0 7.96512 0 6.65116C0 5.74419 0.162791 4.88372 0.476744 4.0814C0.802326 3.25581 1.32558 2.48837 2.03488 1.82558C2.93023 0.941861 3.95349 0.5 5.04651 0.5C5.5 0.5 5.96512 0.604651 6.36046 0.790698C6.81395 1 7.19767 1.31395 7.47674 1.73256L10.1744 5.53488C10.4186 5.87209 10.6047 6.19767 10.7326 6.52326C10.8837 6.87209 10.9651 7.22093 10.9651 7.55814C10.9651 8 10.8372 8.43023 10.593 8.83721C10.4186 9.15116 10.1512 9.48837 9.81395 9.82558L9.02326 10.6512C9.03488 10.686 9.04651 10.7093 9.05814 10.7326C9.19767 10.9767 9.47674 11.3953 10.0116 12.0233C10.5814 12.6744 11.1163 13.2674 11.6512 13.814C12.3372 14.4884 12.907 15.0233 13.4419 15.4651C14.1047 16.0233 14.5349 16.3023 14.7907 16.4302L15.6163 15.6512C15.9767 15.2907 16.3256 15.0233 16.6628 14.8488C17.3023 14.4535 18.1163 14.3837 18.9302 14.7209C19.2326 14.8488 19.5581 15.0233 19.907 15.2674L23.7674 18.0116C24.1977 18.3023 24.5116 18.6744 24.6977 19.1163C24.8721 19.5581 24.9535 19.9651 24.9535 20.3721C24.9535 20.9302 24.8256 21.4884 24.5814 22.0116C24.3372 22.5349 24.0349 22.9884 23.6512 23.407C22.9884 24.1395 22.2674 24.6628 21.4302 25C20.6279 25.3256 19.7558 25.5 18.8372 25.5ZM5.04651 2.24419C4.40698 2.24419 3.81395 2.52326 3.24419 3.0814C2.7093 3.5814 2.33721 4.12791 2.10465 4.72093C1.86046 5.32558 1.74419 5.96512 1.74419 6.65116C1.74419 7.73256 2 8.90698 2.51163 10.1163C3.03488 11.3488 3.76744 12.6279 4.69767 13.907C5.62791 15.186 6.68605 16.4302 7.84884 17.6047C9.01163 18.7558 10.2674 19.8256 11.5581 20.7674C12.814 21.686 14.1047 22.4302 15.3837 22.9651C17.3721 23.814 19.2326 24.0116 20.7674 23.3721C21.3605 23.1279 21.8837 22.7558 22.3605 22.2209C22.6279 21.9302 22.8372 21.6163 23.0116 21.2442C23.1512 20.9535 23.2209 20.6512 23.2209 20.3488C23.2209 20.1628 23.186 19.9767 23.093 19.7674C23.0581 19.6977 22.9884 19.5698 22.7674 19.4186L18.907 16.6744C18.6744 16.5116 18.4651 16.3953 18.2674 16.314C18.0116 16.2093 17.907 16.1047 17.5116 16.3488C17.2791 16.4651 17.0698 16.6395 16.8372 16.8721L15.9535 17.7442C15.5 18.186 14.8023 18.2907 14.2674 18.093L13.9535 17.9535C13.4767 17.6977 12.9186 17.3023 12.3023 16.7791C11.7442 16.3023 11.1395 15.7442 10.407 15.0233C9.83721 14.4419 9.26744 13.8256 8.67442 13.1395C8.12791 12.5 7.73256 11.9535 7.48837 11.5L7.34884 11.1512C7.27907 10.8837 7.25581 10.7326 7.25581 10.5698C7.25581 10.1512 7.40698 9.77907 7.69767 9.48837L8.56977 8.5814C8.80233 8.34884 8.97674 8.12791 9.09302 7.93023C9.18605 7.77907 9.22093 7.65116 9.22093 7.53488C9.22093 7.44186 9.18605 7.30233 9.12791 7.16279C9.04651 6.97674 8.9186 6.76744 8.75581 6.54651L6.05814 2.73256C5.94186 2.56977 5.80233 2.45349 5.62791 2.37209C5.44186 2.2907 5.24419 2.24419 5.04651 2.24419Z" fill="white"/>
<path d="M20.0581 10.3843C19.5813 10.3843 19.186 9.98892 19.186 9.51217C19.186 9.09357 18.7674 8.22148 18.0697 7.47729C17.3837 6.74473 16.6278 6.3145 15.9883 6.3145C15.5116 6.3145 15.1162 5.91915 15.1162 5.44241C15.1162 4.96566 15.5116 4.57031 15.9883 4.57031C17.1162 4.57031 18.3023 5.17496 19.3371 6.27961C20.3023 7.3145 20.9302 8.58194 20.9302 9.51217C20.9302 9.98892 20.5348 10.3843 20.0581 10.3843Z" fill="white"/>
<path d="M24.1278 10.3837C23.6511 10.3837 23.2557 9.98837 23.2557 9.51163C23.2557 5.5 19.9999 2.24419 15.9883 2.24419C15.5116 2.24419 15.1162 1.84884 15.1162 1.37209C15.1162 0.895349 15.5116 0.5 15.9883 0.5C20.9534 0.5 24.9999 4.54651 24.9999 9.51163C24.9999 9.98837 24.6046 10.3837 24.1278 10.3837Z" fill="white"/>
</svg>
