<svg width="185" height="185" viewBox="0 0 185 185" fill="none" xmlns="http://www.w3.org/2000/svg">
<g clip-path="url(#clip0_171_9078)">
<path d="M92.4999 65.521C84.1147 65.521 75.9179 68.0075 68.946 72.666C61.974 77.3245 56.5401 83.9458 53.3312 91.6926C50.1224 99.4395 49.2828 107.964 50.9186 116.188C52.5545 124.412 56.5923 131.966 62.5215 137.895C68.4506 143.824 76.0048 147.862 84.2288 149.498C92.4528 151.134 100.977 150.294 108.724 147.085C116.471 143.877 123.092 138.443 127.751 131.471C132.409 124.499 134.896 116.302 134.896 107.917C134.896 96.6728 130.429 85.8892 122.478 77.9384C114.527 69.9877 103.744 65.521 92.4999 65.521ZM92.4999 142.604C85.6393 142.604 78.9328 140.57 73.2285 136.758C67.5242 132.947 63.0782 127.529 60.4528 121.191C57.8274 114.853 57.1404 107.878 58.4789 101.15C59.8173 94.4209 63.121 88.2402 67.9721 83.3891C72.8232 78.5379 79.0039 75.2343 85.7327 73.8958C92.4614 72.5574 99.4359 73.2443 105.774 75.8698C112.112 78.4952 117.53 82.9412 121.341 88.6455C125.153 94.3498 127.187 101.056 127.187 107.917C127.187 117.117 123.533 125.939 117.028 132.445C110.522 138.95 101.7 142.604 92.4999 142.604Z" fill="#EF7C00"/>
<path d="M92.4998 50.104C80.554 50.1592 68.914 53.8867 59.1583 60.7812C49.4027 67.6756 42.0032 77.4035 37.9634 88.6457H30.8332C29.811 88.6457 28.8307 89.0517 28.1079 89.7745C27.3851 90.4973 26.979 91.4776 26.979 92.4998V123.333C26.979 124.355 27.3851 125.336 28.1079 126.058C28.8307 126.781 29.811 127.187 30.8332 127.187H37.9634C41.4959 137.179 47.7069 146.007 55.9175 152.707C64.1281 159.408 74.0225 163.722 84.5194 165.18C95.0163 166.637 105.712 165.181 115.437 160.971C125.163 156.761 133.544 149.958 139.664 141.307C145.785 132.656 149.41 122.488 150.144 111.916C150.877 101.344 148.69 90.7736 143.822 81.3602C138.954 71.9469 131.592 64.0527 122.541 58.5403C113.49 53.028 103.097 50.1096 92.4998 50.104ZM92.4998 158.021C81.7187 157.972 71.237 154.468 62.5937 148.024C53.9504 141.58 47.6007 132.534 44.4769 122.215C43.4748 118.939 40.6228 119.479 34.6873 119.479V96.354C40.6613 96.354 43.4748 96.9321 44.4769 93.6175C47.129 84.7111 52.2057 76.7177 59.1397 70.5308C66.0737 64.3439 74.5916 60.2073 83.7415 58.5833C92.8914 56.9594 102.313 57.912 110.952 61.3349C119.592 64.7577 127.109 70.5159 132.664 77.9657C138.219 85.4155 141.593 94.2634 142.408 103.52C143.224 112.777 141.449 122.079 137.281 130.385C133.114 138.691 126.719 145.675 118.811 150.555C110.902 155.435 101.793 158.02 92.4998 158.021Z" fill="#EF7C00"/>
<path d="M169.583 0H15.4167C14.3945 0 13.4142 0.406063 12.6914 1.12886C11.9686 1.85166 11.5625 2.83198 11.5625 3.85417V181.146C11.5625 182.168 11.9686 183.148 12.6914 183.871C13.4142 184.594 14.3945 185 15.4167 185H169.583C170.606 185 171.586 184.594 172.309 183.871C173.031 183.148 173.438 182.168 173.438 181.146V3.85417C173.438 2.83198 173.031 1.85166 172.309 1.12886C171.586 0.406063 170.606 0 169.583 0ZM19.2708 7.70833H165.729V30.8333H19.2708V7.70833ZM19.2708 177.292V38.5417H165.729V177.292H19.2708Z" fill="#EF7C00"/>
<path d="M92.4998 26.9792C96.757 26.9792 100.208 23.528 100.208 19.2708C100.208 15.0136 96.757 11.5625 92.4998 11.5625C88.2426 11.5625 84.7915 15.0136 84.7915 19.2708C84.7915 23.528 88.2426 26.9792 92.4998 26.9792Z" fill="#EF7C00"/>
<rect x="110" y="96" width="5" height="23" rx="2.5" fill="#EF7C00"/>
</g>
<defs>
<clipPath id="clip0_171_9078">
<rect width="185" height="185" fill="white"/>
</clipPath>
</defs>
</svg>
