<svg width="185" height="185" viewBox="0 0 185 185" fill="none" xmlns="http://www.w3.org/2000/svg">
<g clip-path="url(#clip0_171_9061)">
<path d="M146.159 7.22656C146.159 5.30996 145.397 3.47185 144.042 2.11661C142.687 0.761368 140.849 0 138.932 0L46.0708 0C44.1542 0 42.3161 0.761368 40.9608 2.11661C39.6056 3.47185 38.8442 5.30996 38.8442 7.22656V66.7098C38.8442 68.4182 39.4397 69.9878 40.4312 71.225C39.4397 72.4622 38.8442 74.0289 38.8442 75.7373V177.773C38.8442 179.69 39.6056 181.528 40.9608 182.883C42.3161 184.239 44.1542 185 46.0708 185H138.932C140.849 185 142.687 184.239 144.042 182.883C145.397 181.528 146.159 179.69 146.159 177.773V75.7373C146.159 74.0289 145.56 72.4593 144.572 71.2221C145.56 69.9849 146.159 68.4153 146.159 66.707V7.22656ZM140.739 177.773C140.739 179.86 140.739 179.58 138.932 179.58H46.0708C45.5917 179.58 44.9708 179.58 44.2642 179.58C44.2642 179.029 44.2642 178.253 44.2642 177.773V75.7373C44.2642 73.6837 44 74 46.0708 73.9306H138.932C141 73.9306 140.739 73.5 140.739 75.7373V177.773ZM140.739 66.7098C140.739 68.6534 141 68.5 138.932 68.5165H46.0708C45.5919 68.5157 44.7642 68.5165 44.2642 68.5165C44.2642 68.0165 44.2649 67.1888 44.2642 66.7098V7.22656C44.2642 5 44 5.41992 46.0708 5.41992H138.932C141 5.41992 140.739 5.23748 140.739 7.22656V66.7098ZM57.3905 17.4825V55.0433C57.3576 55.7717 57.045 56.4594 56.5179 56.9632C55.9908 57.467 55.2897 57.7482 54.5606 57.7482C53.8314 57.7482 53.1303 57.467 52.6032 56.9632C52.0761 56.4594 51.7636 55.7717 51.7306 55.0433V17.4825C51.7306 16.732 52.0288 16.0122 52.5595 15.4814C53.0902 14.9507 53.81 14.6526 54.5606 14.6526C55.3111 14.6526 56.0309 14.9507 56.5616 15.4814C57.0923 16.0122 57.3905 16.732 57.3905 17.4825ZM57.3905 85.4122V122.97C57.3905 123.721 57.0923 124.44 56.5616 124.971C56.0309 125.502 55.3111 125.8 54.5606 125.8C53.81 125.8 53.0902 125.502 52.5595 124.971C52.0288 124.44 51.7306 123.721 51.7306 122.97V85.4122C51.7306 84.6616 52.0288 83.9418 52.5595 83.4111C53.0902 82.8804 53.81 82.5823 54.5606 82.5823C55.3111 82.5823 56.0309 82.8804 56.5616 83.4111C57.0923 83.9418 57.3905 84.6616 57.3905 85.4122Z" fill="#EF7C00"/>
</g>
<defs>
<clipPath id="clip0_171_9061">
<rect width="185" height="185" fill="white"/>
</clipPath>
</defs>
</svg>
