<svg width="185" height="185" viewBox="0 0 185 185" fill="none" xmlns="http://www.w3.org/2000/svg">
<path d="M165.167 9H11.8333C10.8167 9 9.84165 9.37533 9.12276 10.0434C8.40387 10.7115 8 11.6177 8 12.5625V176.438C8 177.382 8.40387 178.288 9.12276 178.957C9.84165 179.625 10.8167 180 11.8333 180H165.167C166.183 180 167.158 179.625 167.877 178.957C168.596 178.288 169 177.382 169 176.438V12.5625C169 11.6177 168.596 10.7115 167.877 10.0434C167.158 9.37533 166.183 9 165.167 9ZM15.6667 16.125H161.333V49.2081H88.9973H15.6667V16.125ZM15.6667 172.875V55.2162H88.9973H161.333V172.875H15.6667Z" fill="#EF7C00"/>
<path d="M30.8906 144.074H145.541C146.308 144.074 147.043 143.769 147.585 143.227C148.128 142.685 148.432 141.95 148.432 141.183V70.7069C148.432 69.9402 148.128 69.205 147.585 68.6629C147.043 68.1208 146.308 67.8163 145.541 67.8163H30.8906C30.124 67.8163 29.3887 68.1208 28.8466 68.6629C28.3045 69.205 28 69.9402 28 70.7069V141.183C28 141.95 28.3045 142.685 28.8466 143.227C29.3887 143.769 30.124 144.074 30.8906 144.074ZM33.7812 128.199H85.3269V138.293H33.7812V128.199ZM91.1081 138.293V128.199H142.651V138.293H91.1081ZM142.651 73.5975V122.417H33.7812V73.5975H142.651ZM114.768 23C112.743 22.9994 110.764 23.5993 109.08 24.7238C107.396 25.8483 106.084 27.4469 105.309 29.3173C104.534 31.1878 104.331 33.2461 104.726 35.2319C105.121 37.2177 106.096 39.0418 107.527 40.4734C108.959 41.9051 110.783 42.88 112.769 43.2749C114.755 43.6697 116.813 43.4668 118.683 42.6917C120.554 41.9166 122.152 40.6042 123.277 38.9206C124.401 37.2369 125.001 35.2575 125.001 33.2328C124.998 30.5198 123.919 27.9189 122 26.0005C120.082 24.0821 117.481 23.0031 114.768 23ZM114.768 37.6873C113.886 37.6901 113.023 37.431 112.288 36.9428C111.553 36.4546 110.98 35.7592 110.641 34.9448C110.302 34.1305 110.212 33.2338 110.384 32.3684C110.555 31.5031 110.979 30.708 111.603 30.0841C112.226 29.4601 113.021 29.0354 113.886 28.8636C114.751 28.6919 115.648 28.7809 116.463 29.1194C117.277 29.4579 117.973 30.0306 118.462 30.765C118.951 31.4993 119.21 32.3623 119.208 33.2444C119.204 34.421 118.735 35.5485 117.903 36.3807C117.072 37.213 115.945 37.6827 114.768 37.6873ZM144.992 23C142.969 23.0017 140.991 23.6033 139.309 24.7286C137.627 25.854 136.316 27.4527 135.543 29.3227C134.769 31.1927 134.567 33.25 134.962 35.2347C135.358 37.2194 136.332 39.0425 137.763 40.4734C139.194 41.9044 141.017 42.8791 143.002 43.2743C144.987 43.6695 147.044 43.4676 148.914 42.6939C150.784 41.9203 152.383 40.6097 153.508 38.9278C154.633 37.2458 155.235 35.2681 155.237 33.2444C155.237 31.8991 154.972 30.5669 154.457 29.324C153.942 28.0811 153.187 26.9518 152.236 26.0005C151.285 25.0492 150.156 24.2946 148.913 23.7798C147.67 23.265 146.338 23 144.992 23ZM144.992 37.6873C144.111 37.6855 143.25 37.4225 142.519 36.9315C141.787 36.4405 141.217 35.7435 140.882 34.9288C140.547 34.114 140.46 33.218 140.634 32.3542C140.808 31.4904 141.234 30.6975 141.858 30.0759C142.483 29.4543 143.278 29.0318 144.142 28.8619C145.007 28.6921 145.902 28.7824 146.716 29.1216C147.529 29.4608 148.223 30.0335 148.711 30.7674C149.199 31.5012 149.458 32.3632 149.455 33.2444C149.452 34.425 148.979 35.5559 148.143 36.3889C147.306 37.2219 146.173 37.6888 144.992 37.6873ZM84.5175 23C82.4928 22.9994 80.5135 23.5993 78.8298 24.7238C77.1461 25.8483 75.8337 27.4469 75.0586 29.3173C74.2835 31.1878 74.0806 33.2461 74.4754 35.2319C74.8703 37.2177 75.8452 39.0418 77.2769 40.4734C78.7085 41.9051 80.5326 42.88 82.5184 43.2749C84.5042 43.6697 86.5625 43.4668 88.433 42.6917C90.3034 41.9166 91.902 40.6042 93.0265 38.9206C94.151 37.2369 94.7509 35.2575 94.7503 33.2328C94.7473 30.5198 93.6682 27.9189 91.7498 26.0005C89.8315 24.0821 87.2305 23.0031 84.5175 23ZM84.5175 37.6873C83.6359 37.6878 82.7739 37.4268 82.0408 36.9372C81.3076 36.4475 80.7362 35.7514 80.399 34.9368C80.0617 34.1222 79.9738 33.2259 80.1463 32.3613C80.3187 31.4967 80.7439 30.7028 81.3679 30.08C81.9919 29.4572 82.7867 29.0336 83.6516 28.8628C84.5166 28.692 85.4127 28.7817 86.2266 29.1205C87.0405 29.4593 87.7356 30.0321 88.2238 30.7662C88.712 31.5003 88.9713 32.3628 88.9691 33.2444C88.9652 34.423 88.4947 35.5522 87.6605 36.3848C86.8262 37.2174 85.6962 37.6857 84.5175 37.6873Z" fill="#EF7C00"/>
<path d="M60.4995 2H27V9H60.4995V2Z" fill="#EF7C00"/>
<path d="M150.499 2H117V9H150.499V2Z" fill="#EF7C00"/>
<rect x="28" y="27" width="33" height="10" rx="4" fill="#EF7C00"/>
</svg>
