<svg width="40" height="30" viewBox="0 0 40 30" fill="none" xmlns="http://www.w3.org/2000/svg">
<rect x="0.5" y="0.5" width="39" height="29" rx="3.5" fill="white" stroke="#F3F3F3"/>
<path d="M8.14487 11.3794C8.38163 11.8041 8.48837 12.2415 8.48837 12.794C8.48837 14.5563 7.10309 16.8457 5.97878 18.4532H3.41077L2.38086 11.7652L4.62943 11.5334L5.17395 16.2923C5.68275 15.3922 6.31061 13.9776 6.31061 13.0131C6.31061 12.4852 6.22735 12.1256 6.09719 11.8295L8.14487 11.3794Z" fill="#008CFF"/>
<path d="M11.0592 14.3248C11.473 14.3248 12.5147 14.1192 12.5147 13.4763C12.5147 13.1675 12.3137 13.0135 12.0768 13.0135C11.6623 13.0135 11.1184 13.5532 11.0592 14.3248ZM11.0118 15.5982C11.0118 16.3833 11.4138 16.6914 11.9467 16.6914C12.527 16.6914 13.0827 16.5373 13.8049 16.1387L13.5328 18.1448C13.024 18.4148 12.231 18.5949 11.4612 18.5949C9.50869 18.5949 8.80988 17.309 8.80988 15.7013C8.80988 13.6177 9.94659 11.4052 12.2901 11.4052C13.5804 11.4052 14.3019 12.1902 14.3019 13.2834C14.302 15.0456 12.2193 15.5855 11.0118 15.5982Z" fill="#008CFF"/>
<path d="M20.7911 12.9233C20.7911 13.1804 20.7552 13.5535 20.7194 13.7973L20.0447 18.4276H17.8552L18.4707 14.1831C18.4824 14.0679 18.5182 13.8362 18.5182 13.7076C18.5182 13.3988 18.3406 13.3218 18.1271 13.3218C17.8434 13.3218 17.5591 13.4631 17.3698 13.5663L16.6717 18.4277H14.4699L15.4758 11.4952H17.3815L17.4056 12.0486C17.8552 11.7271 18.4472 11.3794 19.2871 11.3794C20.4 11.3793 20.7911 11.9968 20.7911 12.9233Z" fill="#008CFF"/>
<path d="M27.2912 12.1641C27.9183 11.6759 28.5104 11.4052 29.3268 11.4052C30.451 11.4052 30.8421 12.0228 30.8421 12.9492C30.8421 13.2064 30.8062 13.5795 30.7706 13.8232L30.0966 18.4536H27.9065L28.5338 14.1193C28.5453 14.0035 28.5696 13.8621 28.5696 13.7725C28.5696 13.4248 28.3919 13.3477 28.1784 13.3477C27.9065 13.3477 27.6346 13.4763 27.4327 13.5923L26.7347 18.4537H24.5453L25.1724 14.1194C25.1839 14.0035 25.2076 13.8622 25.2076 13.7725C25.2076 13.4249 25.0297 13.3478 24.817 13.3478C24.5328 13.3478 24.2491 13.4891 24.0597 13.5923L23.3611 18.4537H21.16L22.1658 11.5213H24.0482L24.1074 12.1C24.5453 11.7532 25.1368 11.4055 25.9298 11.4055C26.6164 11.4052 27.0658 11.7268 27.2912 12.1641Z" fill="#008CFF"/>
<path d="M35.1989 14.1834C35.1989 13.6174 35.0686 13.2316 34.6783 13.2316C33.8143 13.2316 33.6368 14.8906 33.6368 15.7393C33.6368 16.3831 33.8027 16.7816 34.1929 16.7816C35.0096 16.7816 35.1989 15.032 35.1989 14.1834ZM31.4117 15.6368C31.4117 13.4506 32.4767 11.405 34.9271 11.405C36.7734 11.405 37.4484 12.5886 37.4484 14.2222C37.4484 16.383 36.3948 18.6208 33.8853 18.6208C32.0271 18.6208 31.4117 17.2959 31.4117 15.6368Z" fill="#008CFF"/>
</svg>
