<svg width="25" height="25" viewBox="0 0 25 25" fill="none" xmlns="http://www.w3.org/2000/svg">
<rect width="25" height="25" rx="12.5" fill="#FF9F37"/>
<path d="M18.6217 6.34604C18.2082 5.9659 16.5343 4.74878 12.8029 4.73211C12.8029 4.73211 8.40464 4.46535 6.26052 6.43273C5.06675 7.6265 4.6466 9.37047 4.60325 11.5379C4.5599 13.7021 4.50321 17.7602 8.41464 18.8606H8.41797L8.41464 20.5379C8.41464 20.5379 8.3913 21.2181 8.83813 21.3549C9.37833 21.5216 9.69844 21.0047 10.2153 20.4479C10.4987 20.1411 10.8889 19.6943 11.1857 19.3508C13.86 19.5742 15.9174 19.0607 16.1508 18.984C16.691 18.8073 19.7488 18.4171 20.2456 14.359C20.7592 10.1841 19.9955 7.5398 18.6217 6.34604ZM19.0752 14.0655C18.6551 17.4534 16.1775 17.6668 15.7206 17.8136C15.5272 17.8769 13.7199 18.3271 11.4457 18.177C11.4457 18.177 9.7518 20.2211 9.22494 20.7513C9.14157 20.8347 9.04487 20.868 8.98151 20.8513C8.89148 20.828 8.8648 20.7213 8.86814 20.5646C8.86814 20.3378 8.88148 17.7735 8.88148 17.7735C8.87814 17.7735 8.87814 17.7735 8.88148 17.7735C5.57027 16.8565 5.76367 13.4019 5.80035 11.5946C5.83703 9.78729 6.17716 8.30342 7.18752 7.30639C8.99819 5.66579 12.7362 5.90921 12.7362 5.90921C15.8907 5.92255 17.4013 6.87289 17.7514 7.18968C18.9151 8.19004 19.5087 10.5742 19.0752 14.0655Z" fill="white"/>
<path d="M14.34 11.6581C14.23 11.6581 14.1366 11.5714 14.1299 11.458C14.0933 10.7411 13.7565 10.3909 13.0696 10.3543C12.9529 10.3476 12.8628 10.2476 12.8695 10.1308C12.8762 10.0141 12.9762 9.9241 13.0929 9.93077C13.9999 9.98079 14.5068 10.501 14.5534 11.4347C14.5601 11.5514 14.4701 11.6514 14.3534 11.6547C14.3467 11.6581 14.3434 11.6581 14.34 11.6581Z" fill="white"/>
<path d="M15.4207 12.0182H15.4173C15.3006 12.0149 15.2073 11.9182 15.2106 11.8014C15.2273 11.0812 15.0205 10.4976 14.5804 10.0175C14.1435 9.53728 13.54 9.27719 12.743 9.2205C12.6263 9.2105 12.5396 9.11046 12.5496 8.99375C12.5596 8.87704 12.6597 8.79034 12.7764 8.80035C13.6767 8.86704 14.387 9.18049 14.8938 9.73402C15.404 10.2909 15.6507 10.9878 15.6341 11.8114C15.6307 11.9282 15.534 12.0182 15.4207 12.0182Z" fill="white"/>
<path d="M16.5274 12.4517C16.4107 12.4517 16.3173 12.3583 16.3173 12.2416C16.3073 10.9511 15.9372 9.96745 15.1835 9.23051C14.4399 8.50358 13.4963 8.13344 12.3859 8.12344C12.2691 8.12344 12.1758 8.02674 12.1758 7.91003C12.1758 7.79332 12.2725 7.69995 12.3859 7.69995C13.6096 7.70995 14.65 8.1201 15.4737 8.92707C16.3006 9.73403 16.7241 10.8478 16.7375 12.2349C16.7408 12.355 16.6474 12.4517 16.5274 12.4517C16.5307 12.4517 16.5307 12.4517 16.5274 12.4517Z" fill="white"/>
<path d="M13.1199 14.2688C13.1199 14.2688 13.4167 14.2955 13.5767 14.0987L13.8868 13.7086C14.0369 13.5152 14.4004 13.3918 14.7538 13.5885C14.9506 13.6986 15.3074 13.9187 15.5274 14.082C15.7642 14.2554 16.2444 14.6556 16.2477 14.6589C16.4778 14.8523 16.5311 15.1358 16.3744 15.4392C16.3744 15.4392 16.3744 15.4425 16.3744 15.4459C16.2144 15.7293 15.9976 15.9961 15.7275 16.2428C15.7242 16.2428 15.7242 16.2462 15.7208 16.2462C15.4974 16.4329 15.2773 16.5396 15.0639 16.563C15.0373 16.5696 15.0072 16.5696 14.9672 16.5696C14.8739 16.5696 14.7805 16.5563 14.6871 16.5263L14.6805 16.5163C14.347 16.4229 13.7935 16.1895 12.8731 15.6793C12.2729 15.3492 11.7761 15.0124 11.3526 14.6756C11.1292 14.4989 10.9024 14.3021 10.669 14.0687C10.6623 14.062 10.6523 14.052 10.6456 14.0454C10.639 14.0387 10.629 14.0287 10.6223 14.022C10.6156 14.0154 10.6056 14.0054 10.599 13.9987C10.5923 13.992 10.5823 13.982 10.5756 13.9753C10.3455 13.7419 10.1455 13.5152 9.96873 13.2918C9.63194 12.8716 9.29515 12.3714 8.96503 11.7712C8.45485 10.8475 8.22143 10.294 8.12806 9.96388L8.11806 9.95721C8.08805 9.86384 8.07471 9.77047 8.07471 9.6771C8.07471 9.63709 8.07471 9.60708 8.08138 9.5804C8.10805 9.36366 8.21476 9.14691 8.39816 8.9235C8.39816 8.92016 8.40149 8.92016 8.40149 8.91683C8.64825 8.64339 8.91501 8.42998 9.19845 8.26992C9.19845 8.26992 9.20179 8.26992 9.20512 8.26992C9.50523 8.1132 9.78867 8.16655 9.98541 8.39664C9.98541 8.39664 10.3889 8.88015 10.5623 9.1169C10.7257 9.34031 10.9458 9.69378 11.0558 9.89052C11.2525 10.244 11.1292 10.6074 10.9358 10.7575L10.5456 11.0676C10.3489 11.2277 10.3755 11.5244 10.3755 11.5244C10.3755 11.5244 10.9524 13.7186 13.1199 14.2688Z" fill="white"/>
</svg>
