<svg width="40" height="30" viewBox="0 0 40 30" fill="none" xmlns="http://www.w3.org/2000/svg">
<rect x="0.5" y="0.5" width="39" height="29" rx="3.5" fill="white" stroke="#F3F3F3"/>
<path d="M17.7598 20.5747H15.0967L16.7624 10.0742H19.4253L17.7598 20.5747Z" fill="#15195A"/>
<path d="M27.4138 10.3313C26.8886 10.1189 26.0554 9.88428 25.0253 9.88428C22.3954 9.88428 20.5434 11.3141 20.5321 13.3582C20.5102 14.8664 21.858 15.7041 22.866 16.207C23.8964 16.7208 24.2466 17.0562 24.2466 17.5143C24.2361 18.2177 23.414 18.542 22.6473 18.542C21.5841 18.542 21.0144 18.3748 20.1486 17.9834L19.798 17.8157L19.4253 20.1728C20.0499 20.4629 21.2006 20.7204 22.3954 20.7316C25.1897 20.7316 27.0089 19.324 27.0304 17.1456C27.041 15.9502 26.3294 15.0343 24.795 14.2859C23.8636 13.8054 23.2932 13.4815 23.2932 12.9899C23.3041 12.543 23.7756 12.0852 24.8271 12.0852C25.6928 12.0628 26.3289 12.275 26.8108 12.4873L27.0517 12.5988L27.4138 10.3313Z" fill="#15195A"/>
<path fill-rule="evenodd" clip-rule="evenodd" d="M32.1806 10.0742H34.2405L36.3889 20.5746H33.9232C33.9232 20.5746 33.6819 19.3681 33.6054 18.9995H30.1862C30.0873 19.2786 29.6273 20.5746 29.6273 20.5746H26.833L30.7887 10.9455C31.0628 10.264 31.5454 10.0742 32.1806 10.0742ZM32.0165 13.9168C32.0165 13.9168 31.1726 16.2515 30.9533 16.8548H33.1668C33.0573 16.3298 32.553 13.8163 32.553 13.8163L32.3669 12.9115C32.2885 13.1445 32.1752 13.4648 32.0987 13.6809C32.0469 13.8273 32.0121 13.9259 32.0165 13.9168Z" fill="#15195A"/>
<path fill-rule="evenodd" clip-rule="evenodd" d="M3.55799 10.0742H7.84265C8.42341 10.0963 8.89467 10.2862 9.04801 10.9569L9.97909 15.7809C9.97922 15.7814 9.97936 15.7819 9.9795 15.7824L10.2645 17.2346L12.8725 10.0742H15.6885L11.5026 20.5636H8.68647L6.31286 11.4396C5.49388 10.9514 4.5592 10.5588 3.51416 10.2864L3.55799 10.0742Z" fill="#15195A"/>
</svg>
