<svg width="80" height="80" viewBox="0 0 80 80" fill="none" xmlns="http://www.w3.org/2000/svg">
<path d="M71.4 8.6875H67.525V5.475C67.525 2.45 65.075 0 62.05 0C59.0375 0 56.575 2.45 56.575 5.475V8.6875H23.425V5.475C23.425 2.45 20.9625 0 17.95 0C14.925 0 12.475 2.45 12.475 5.475V8.6875H8.6C4.4125 8.6875 1 12.1 1 16.3V72.3875C1 76.5875 4.4125 80 8.6 80H71.4C75.5875 80 79 76.5875 79 72.3875V16.3C79 12.1 75.5875 8.6875 71.4 8.6875ZM60.1625 5.475C60.1625 4.425 61.0125 3.575 62.05 3.575C63.1 3.575 63.95 4.425 63.95 5.475V15.5C63.95 16.0023 63.7505 16.4839 63.3953 16.8391C63.0402 17.1942 62.5585 17.3937 62.0563 17.3937C61.554 17.3937 61.0723 17.1942 60.7172 16.8391C60.362 16.4839 60.1625 16.0023 60.1625 15.5V5.475ZM16.05 5.475C16.05 4.425 16.9 3.575 17.95 3.575C18.9875 3.575 19.8375 4.425 19.8375 5.475V15.5C19.8375 16.0023 19.638 16.4839 19.2828 16.8391C18.9277 17.1942 18.446 17.3937 17.9437 17.3937C17.4415 17.3937 16.9598 17.1942 16.6047 16.8391C16.2495 16.4839 16.05 16.0023 16.05 15.5V5.475ZM75.425 72.3875C75.425 74.6125 73.6125 76.4125 71.4 76.4125H8.6C6.3875 76.4125 4.575 74.6125 4.575 72.3875V29.0375H75.425V72.3875ZM75.425 25.45H4.575V16.3C4.575 14.075 6.3875 12.275 8.6 12.275H12.475V15.5C12.475 18.5125 14.925 20.975 17.95 20.975C20.9625 20.975 23.425 18.5125 23.425 15.5V12.275H56.575V15.5C56.575 18.5125 59.0375 20.975 62.05 20.975C65.075 20.975 67.525 18.5125 67.525 15.5V12.275H71.4C73.6125 12.275 75.425 14.075 75.425 16.3V25.45Z" fill="#EF7C00"/>
<path d="M19.8373 5.4752V15.5002C19.8373 16.0024 19.6378 16.4841 19.2826 16.8393C18.9275 17.1944 18.4458 17.3939 17.9436 17.3939C17.4413 17.3939 16.9596 17.1944 16.6045 16.8393C16.2493 16.4841 16.0498 16.0024 16.0498 15.5002V5.4752C16.0498 4.4252 16.8998 3.5752 17.9498 3.5752C18.9873 3.5752 19.8373 4.4252 19.8373 5.4752ZM63.9498 5.4752V15.5002C63.9498 16.0024 63.7503 16.4841 63.3951 16.8393C63.04 17.1944 62.5583 17.3939 62.0561 17.3939C61.5538 17.3939 61.0721 17.1944 60.717 16.8393C60.3618 16.4841 60.1623 16.0024 60.1623 15.5002V5.4752C60.1623 4.4252 61.0123 3.5752 62.0498 3.5752C63.0998 3.5752 63.9498 4.4252 63.9498 5.4752Z" fill="#EF7C00"/>
<path d="M75.4252 16.2999V25.4499H4.5752V16.2999C4.5752 14.0749 6.3877 12.2749 8.6002 12.2749H12.4752V15.4999C12.4752 18.5124 14.9252 20.9749 17.9502 20.9749C20.9627 20.9749 23.4252 18.5124 23.4252 15.4999V12.2749H56.5752V15.4999C56.5752 18.5124 59.0377 20.9749 62.0502 20.9749C65.0752 20.9749 67.5252 18.5124 67.5252 15.4999V12.2749H71.4002C73.6127 12.2749 75.4252 14.0749 75.4252 16.2999Z" fill="#EF7C00"/>
<path d="M4.5752 29.0376V72.3876C4.5752 74.6126 6.3877 76.4126 8.6002 76.4126H71.4002C73.6127 76.4126 75.4252 74.6126 75.4252 72.3876V29.0376H4.5752ZM20.7627 72.1876C20.7627 73.1751 19.9627 73.9751 18.9752 73.9751H10.7127C9.72519 73.9751 8.9252 73.1751 8.9252 72.1876V63.9251C8.9252 62.9376 9.72519 62.1376 10.7127 62.1376H18.9752C19.9627 62.1376 20.7627 62.9376 20.7627 63.9251V72.1876ZM20.7627 56.8501C20.7627 57.8376 19.9627 58.6501 18.9752 58.6501H10.7127C9.72519 58.6501 8.9252 57.8376 8.9252 56.8501V48.6001C8.9252 47.6126 9.72519 46.8126 10.7127 46.8126H18.9752C19.9627 46.8126 20.7627 47.6126 20.7627 48.6001V56.8501ZM37.5377 72.1876C37.5377 73.1751 36.7252 73.9751 35.7377 73.9751H27.4877C26.5002 73.9751 25.7002 73.1751 25.7002 72.1876V63.9251C25.7002 62.9376 26.5002 62.1376 27.4877 62.1376H35.7377C36.7252 62.1376 37.5377 62.9376 37.5377 63.9251V72.1876ZM37.5377 56.8501C37.5377 57.8376 36.7252 58.6501 35.7377 58.6501H27.4877C26.5002 58.6501 25.7002 57.8376 25.7002 56.8501V48.6001C25.7002 47.6126 26.5002 46.8126 27.4877 46.8126H35.7377C36.7252 46.8126 37.5377 47.6126 37.5377 48.6001V56.8501ZM54.3002 72.1876C54.3002 73.1751 53.5002 73.9751 52.5127 73.9751H44.2627C43.2752 73.9751 42.4627 73.1751 42.4627 72.1876V63.9251C42.4627 62.9376 43.2752 62.1376 44.2627 62.1376H52.5127C53.5002 62.1376 54.3002 62.9376 54.3002 63.9251V72.1876ZM54.3002 56.8501C54.3002 57.8376 53.5002 58.6501 52.5127 58.6501H44.2627C43.2752 58.6501 42.4627 57.8376 42.4627 56.8501V48.6001C42.4627 47.6126 43.2752 46.8126 44.2627 46.8126H52.5127C53.5002 46.8126 54.3002 47.6126 54.3002 48.6001V56.8501ZM54.3002 41.5251C54.3002 42.5126 53.5002 43.3126 52.5127 43.3126H44.2627C43.2752 43.3126 42.4627 42.5126 42.4627 41.5251V33.2626C42.4627 32.2751 43.2752 31.4751 44.2627 31.4751H52.5127C53.5002 31.4751 54.3002 32.2751 54.3002 33.2626V41.5251ZM71.0752 56.8501C71.0752 57.8376 70.2752 58.6501 69.2877 58.6501H61.0252C60.0377 58.6501 59.2377 57.8376 59.2377 56.8501V48.6001C59.2377 47.6126 60.0377 46.8126 61.0252 46.8126H69.2877C70.2752 46.8126 71.0752 47.6126 71.0752 48.6001V56.8501ZM71.0752 41.5251C71.0752 42.5126 70.2752 43.3126 69.2877 43.3126H61.0252C60.0377 43.3126 59.2377 42.5126 59.2377 41.5251V33.2626C59.2377 32.2751 60.0377 31.4751 61.0252 31.4751H69.2877C70.2752 31.4751 71.0752 32.2751 71.0752 33.2626V41.5251Z" fill="white"/>
<path d="M52.5124 31.4751H44.2624C43.2749 31.4751 42.4624 32.2751 42.4624 33.2626V41.5251C42.4624 42.5126 43.2749 43.3126 44.2624 43.3126H52.5124C53.4999 43.3126 54.2999 42.5126 54.2999 41.5251V33.2626C54.2999 32.2751 53.4999 31.4751 52.5124 31.4751ZM50.7249 39.7376H46.0499V35.0626H50.7249V39.7376Z" fill="#FFCA91"/>
<path d="M46.0498 35.0625H50.7248V39.7375H46.0498V35.0625Z" fill="#FFCA91"/>
<path d="M69.2873 31.4751H61.0248C60.0373 31.4751 59.2373 32.2751 59.2373 33.2626V41.5251C59.2373 42.5126 60.0373 43.3126 61.0248 43.3126H69.2873C70.2748 43.3126 71.0748 42.5126 71.0748 41.5251V33.2626C71.0748 32.2751 70.2748 31.4751 69.2873 31.4751ZM67.4873 39.7376H62.8248V35.0626H67.4873V39.7376Z" fill="#FFCA91"/>
<path d="M62.8252 35.0625H67.4877V39.7375H62.8252V35.0625Z" fill="#FFCA91"/>
<path d="M18.9748 46.8125H10.7123C9.7248 46.8125 8.9248 47.6125 8.9248 48.6V56.85C8.9248 57.8375 9.7248 58.65 10.7123 58.65H18.9748C19.9623 58.65 20.7623 57.8375 20.7623 56.85V48.6C20.7623 47.6125 19.9623 46.8125 18.9748 46.8125ZM17.1748 55.0625H12.4998V50.3875H17.1748V55.0625Z" fill="#FFCA91"/>
<path d="M12.5 50.3877H17.175V55.0627H12.5V50.3877Z" fill="#FFCA91"/>
<path d="M35.7377 46.8125H27.4877C26.5002 46.8125 25.7002 47.6125 25.7002 48.6V56.85C25.7002 57.8375 26.5002 58.65 27.4877 58.65H35.7377C36.7252 58.65 37.5377 57.8375 37.5377 56.85V48.6C37.5377 47.6125 36.7252 46.8125 35.7377 46.8125ZM33.9502 55.0625H29.2752V50.3875H33.9502V55.0625Z" fill="#FF5050"/>
<path d="M29.2749 50.3877H33.9499V55.0627H29.2749V50.3877Z" fill="#FF5050"/>
<path d="M52.5124 46.8125H44.2624C43.2749 46.8125 42.4624 47.6125 42.4624 48.6V56.85C42.4624 57.8375 43.2749 58.65 44.2624 58.65H52.5124C53.4999 58.65 54.2999 57.8375 54.2999 56.85V48.6C54.2999 47.6125 53.4999 46.8125 52.5124 46.8125ZM50.7249 55.0625H46.0499V50.3875H50.7249V55.0625Z" fill="#FF5050"/>
<path d="M46.0498 50.3877H50.7248V55.0627H46.0498V50.3877Z" fill="#FF5050"/>
<path d="M69.2873 46.8125H61.0248C60.0373 46.8125 59.2373 47.6125 59.2373 48.6V56.85C59.2373 57.8375 60.0373 58.65 61.0248 58.65H69.2873C70.2748 58.65 71.0748 57.8375 71.0748 56.85V48.6C71.0748 47.6125 70.2748 46.8125 69.2873 46.8125ZM67.4873 55.0625H62.8248V50.3875H67.4873V55.0625Z" fill="#FFCA91"/>
<path d="M62.8252 50.3877H67.4877V55.0627H62.8252V50.3877Z" fill="#FFCA91"/>
<path d="M18.9748 62.1377H10.7123C9.7248 62.1377 8.9248 62.9377 8.9248 63.9252V72.1877C8.9248 73.1752 9.7248 73.9752 10.7123 73.9752H18.9748C19.9623 73.9752 20.7623 73.1752 20.7623 72.1877V63.9252C20.7623 62.9377 19.9623 62.1377 18.9748 62.1377ZM17.1748 70.3877H12.4998V65.7252H17.1748V70.3877Z" fill="#FFCA91"/>
<path d="M12.5 65.7251H17.175V70.3876H12.5V65.7251Z" fill="#FFCA91"/>
<path d="M35.7377 62.1377H27.4877C26.5002 62.1377 25.7002 62.9377 25.7002 63.9252V72.1877C25.7002 73.1752 26.5002 73.9752 27.4877 73.9752H35.7377C36.7252 73.9752 37.5377 73.1752 37.5377 72.1877V63.9252C37.5377 62.9377 36.7252 62.1377 35.7377 62.1377ZM33.9502 70.3877H29.2752V65.7252H33.9502V70.3877Z" fill="#FFCA91"/>
<path d="M29.2749 65.7251H33.9499V70.3876H29.2749V65.7251Z" fill="#FFCA91"/>
<path d="M52.5124 62.1377H44.2624C43.2749 62.1377 42.4624 62.9377 42.4624 63.9252V72.1877C42.4624 73.1752 43.2749 73.9752 44.2624 73.9752H52.5124C53.4999 73.9752 54.2999 73.1752 54.2999 72.1877V63.9252C54.2999 62.9377 53.4999 62.1377 52.5124 62.1377ZM50.7249 70.3877H46.0499V65.7252H50.7249V70.3877Z" fill="#FFCA91"/>
<path d="M46.0498 65.7251H50.7248V70.3876H46.0498V65.7251Z" fill="#FFCA91"/>
</svg>
