<svg width="100" height="70" viewBox="0 0 100 70" fill="none" xmlns="http://www.w3.org/2000/svg">
<path d="M32.5 0L35.8677 10.3647H46.7658L37.9491 16.7705L41.3168 27.1353L32.5 20.7295L23.6832 27.1353L27.0509 16.7705L18.2342 10.3647H29.1323L32.5 0Z" fill="#EF7C00"/>
<path d="M67.5 0L70.8677 10.3647H81.7658L72.9491 16.7705L76.3168 27.1353L67.5 20.7295L58.6832 27.1353L62.0509 16.7705L53.2342 10.3647H64.1323L67.5 0Z" fill="#EF7C00"/>
<path d="M15 40L18.3677 50.3647H29.2658L20.4491 56.7705L23.8168 67.1353L15 60.7295L6.18322 67.1353L9.55093 56.7705L0.734152 50.3647H11.6323L15 40Z" fill="#EF7C00"/>
<path d="M50 40L53.3677 50.3647H64.2658L55.4491 56.7705L58.8168 67.1353L50 60.7295L41.1832 67.1353L44.5509 56.7705L35.7342 50.3647H46.6323L50 40Z" fill="#EF7C00"/>
<path d="M85 40L88.3677 50.3647H99.2658L90.4491 56.7705L93.8168 67.1353L85 60.7295L76.1832 67.1353L79.5509 56.7705L70.7342 50.3647H81.6323L85 40Z" fill="#EF7C00"/>
</svg>
