<svg width="100" height="100" viewBox="0 0 100 100" fill="none" xmlns="http://www.w3.org/2000/svg">
<path d="M45.2381 30.583C45.2381 21.1167 37.7616 13.4155 28.5715 13.4155C19.3813 13.4155 11.9048 21.117 11.9048 30.5833C11.9335 33.8878 12.8665 37.1214 14.6025 39.9333L14.6194 39.9234C15.0873 40.7471 17.2329 44.3452 27.549 61.6443C27.6546 61.8213 27.8043 61.9679 27.9836 62.0697C28.1628 62.1714 28.3653 62.225 28.5715 62.2251H28.5726C28.779 62.2249 28.9817 62.171 29.1609 62.0689C29.3402 61.9667 29.4898 61.8197 29.5951 61.6423C29.5951 61.6423 42.0416 40.6776 42.0928 40.5901C43.4876 38.3943 44.4633 35.9591 44.9708 33.4077C45.1457 32.4763 45.2352 31.5307 45.2381 30.583ZM42.6293 32.9738C42.1749 35.2379 41.3049 37.3984 40.0635 39.3456C40.0519 39.3642 32.6864 51.7712 28.5691 58.7065C25.5377 53.6229 16.8149 38.9956 16.6516 38.7201L16.6475 38.7137C15.1331 36.2699 14.3164 33.4582 14.2857 30.5833C14.2857 22.4298 20.6944 15.7965 28.5715 15.7965C36.4485 15.7965 42.8572 22.4296 42.8572 30.583C42.8543 31.3852 42.778 32.1855 42.6293 32.9738Z" fill="#FF5050"/>
<path d="M28.5716 21.749C26.9234 21.749 25.3123 22.2378 23.9419 23.1534C22.5715 24.0691 21.5034 25.3706 20.8726 26.8933C20.2419 28.416 20.0769 30.0916 20.3984 31.7081C20.72 33.3246 21.5136 34.8095 22.6791 35.9749C23.8445 37.1403 25.3294 37.934 26.9459 38.2556C28.5624 38.5771 30.2379 38.4121 31.7606 37.7814C33.2834 37.1506 34.5849 36.0825 35.5005 34.7121C36.4162 33.3417 36.905 31.7305 36.905 30.0824C36.9025 27.873 36.0237 25.7548 34.4614 24.1925C32.8992 22.6303 30.781 21.7515 28.5716 21.749ZM28.5716 36.0347C27.3943 36.0347 26.2435 35.6856 25.2647 35.0316C24.2858 34.3775 23.5229 33.4479 23.0723 32.3602C22.6218 31.2726 22.5039 30.0758 22.7336 28.9211C22.9633 27.7665 23.5302 26.7058 24.3626 25.8734C25.1951 25.0409 26.2557 24.474 27.4104 24.2443C28.565 24.0147 29.7618 24.1326 30.8495 24.5831C31.9372 25.0336 32.8668 25.7965 33.5208 26.7754C34.1749 27.7543 34.524 28.9051 34.524 30.0824C34.5222 31.6605 33.8945 33.1734 32.7786 34.2893C31.6627 35.4052 30.1497 36.0329 28.5716 36.0347Z" fill="#FF5050"/>
<path d="M85.7142 74.8109V78.057C85.7067 78.3393 85.5964 78.609 85.4039 78.8155C85.2114 79.0221 84.95 79.1511 84.669 79.1783C84.0983 79.2473 83.5391 79.3314 82.9801 79.4161C82.4536 80.303 81.9153 81.2097 81.3835 82.1055C82.5482 81.8822 83.734 81.6893 84.955 81.5419C85.8136 81.4445 86.6069 81.0364 87.1854 80.3944C87.7638 79.7525 88.0874 78.9211 88.0951 78.057V70.7689C87.8512 71.2215 87.61 71.6362 87.3848 71.9971C87.2658 72.1975 86.625 73.2767 85.7142 74.8109ZM84.6051 33.6604C80.809 33.5879 77.0455 34.3736 73.5955 35.9588C72.3309 36.5747 71.1124 37.2813 69.9497 38.0729C68.2383 39.1803 66.6218 40.2266 64.7588 40.6649C60.5119 41.6641 56.519 39.7749 52.2901 37.7744C50.5458 36.9126 48.7564 36.145 46.9298 35.4747C46.7214 36.2405 46.4722 36.9945 46.1831 37.7335C47.9168 38.3747 49.6156 39.1067 51.2723 39.9266C55.6849 42.014 60.2468 44.1735 65.304 42.9824C67.5687 42.4497 69.437 41.2409 71.243 40.0716C72.3101 39.3429 73.4281 38.6915 74.5883 38.1226C77.7094 36.6857 81.1152 35.9739 84.5504 36.0407C84.854 36.0428 85.145 36.1625 85.3621 36.3748C85.5792 36.5871 85.7054 36.8754 85.7142 37.1789V49.9291C86.627 50.9006 87.4259 51.9732 88.0951 53.1261V37.1789C88.0828 36.2544 87.7121 35.3709 87.061 34.7145C86.4099 34.0581 85.5294 33.6801 84.6051 33.6604Z" fill="#EF7C00"/>
<path d="M73.4838 46.9629C65.4272 46.9629 58.8726 53.7125 58.8726 62.0086C58.8973 64.9028 59.7141 67.7349 61.2343 70.1978L61.246 70.1908C61.6459 70.889 63.4903 73.9814 72.4613 89.0254C72.5669 89.2024 72.7167 89.3489 72.8959 89.4507C73.0751 89.5525 73.2777 89.6061 73.4838 89.6061H73.485C73.6913 89.6059 73.894 89.5521 74.0733 89.4499C74.2525 89.3478 74.4021 89.2008 74.5075 89.0234L85.3432 70.7707C86.5634 68.8495 87.417 66.7189 87.8608 64.4867C88.014 63.6694 88.0924 62.8399 88.095 62.0083C88.095 53.7122 81.5404 46.9629 73.4838 46.9629ZM85.5194 64.053C85.1278 65.9999 84.3788 67.8574 83.3104 69.5314C83.2709 69.5985 76.1757 81.5498 73.4815 86.0876C70.7262 81.4669 63.3595 69.1134 63.281 68.9815L63.2793 68.9783C61.9805 66.8835 61.2799 64.4732 61.2535 62.0086C61.2535 55.0253 66.7403 49.3438 73.4838 49.3438C80.2273 49.3438 85.7141 55.025 85.7141 62.0083C85.7114 62.6944 85.6463 63.3788 85.5194 64.053Z" fill="#EF7C00"/>
<path d="M73.4841 54.0835C71.9912 54.0835 70.5318 54.5261 69.2905 55.3555C68.0492 56.1849 67.0817 57.3638 66.5104 58.743C65.9391 60.1223 65.7896 61.64 66.0808 63.1042C66.3721 64.5684 67.091 65.9134 68.1466 66.969C69.2022 68.0247 70.5472 68.7435 72.0114 69.0348C73.4756 69.326 74.9933 69.1765 76.3726 68.6052C77.7518 68.0339 78.9307 67.0664 79.7601 65.8251C80.5895 64.5838 81.0322 63.1244 81.0321 61.6315C81.0299 59.6303 80.2339 57.7118 78.8189 56.2968C77.4038 54.8817 75.4853 54.0858 73.4841 54.0835ZM73.4841 66.7989C72.4621 66.7989 71.4631 66.4959 70.6133 65.9281C69.7636 65.3604 69.1013 64.5534 68.7101 63.6092C68.319 62.665 68.2167 61.6261 68.416 60.6237C68.6154 59.6214 69.1075 58.7007 69.8301 57.978C70.5527 57.2553 71.4734 56.7632 72.4757 56.5638C73.4781 56.3644 74.517 56.4667 75.4612 56.8577C76.4054 57.2488 77.2125 57.9111 77.7803 58.7608C78.3481 59.6105 78.6511 60.6095 78.6512 61.6315C78.6496 63.0014 78.1047 64.3148 77.1361 65.2835C76.1674 66.2523 74.854 66.7972 73.4841 66.7989ZM28.4669 66.4059C28.1533 66.4359 27.8641 66.5883 27.6619 66.83C27.4598 67.0717 27.361 67.3832 27.3869 67.6972C27.4025 67.8461 27.4281 67.9938 27.4636 68.1393C27.5353 68.446 27.7256 68.7118 27.9928 68.8785C28.26 69.0452 28.5824 69.0992 28.8894 69.0287C29.1963 68.9582 29.4628 68.7689 29.6305 68.5023C29.7982 68.2357 29.8535 67.9135 29.7841 67.6063C29.7667 67.5295 29.7579 67.4766 29.755 67.4551C29.7213 67.146 29.5673 66.8626 29.3262 66.6663C29.0851 66.4699 28.7764 66.3764 28.4669 66.4059ZM46.7333 71.3477C46.9175 71.3338 47.1001 71.3219 47.282 71.3114C47.4383 71.3028 47.5913 71.2634 47.7323 71.1955C47.8733 71.1276 47.9996 71.0326 48.1039 70.9159C48.2081 70.7992 48.2884 70.6631 48.34 70.5153C48.3916 70.3676 48.4135 70.2111 48.4046 70.0548C48.3956 69.8986 48.356 69.7456 48.2879 69.6047C48.2197 69.4638 48.1245 69.3377 48.0076 69.2337C47.8907 69.1296 47.7544 69.0497 47.6066 68.9983C47.4587 68.947 47.3022 68.9253 47.146 68.9345C46.9513 68.9456 46.7548 68.9585 46.5566 68.9732C46.2495 68.9961 45.9632 69.1371 45.7579 69.3666C45.5526 69.5962 45.4442 69.8963 45.4555 70.204C45.4667 70.5118 45.5968 70.8032 45.8184 71.017C46.04 71.2309 46.3358 71.3506 46.6437 71.3509C46.6734 71.3509 46.703 71.3498 46.7333 71.3477ZM36.9543 70.6121C36.7741 70.6339 36.5979 70.6524 36.4259 70.6676C36.1206 70.6947 35.8375 70.8384 35.6355 71.069C35.4336 71.2995 35.3283 71.599 35.3416 71.9052C35.355 72.2114 35.4859 72.5007 35.7071 72.7128C35.9283 72.9249 36.2229 73.0435 36.5293 73.0439C36.5642 73.0439 36.5997 73.0425 36.6351 73.0393C36.8328 73.0218 37.0345 73.0009 37.2414 72.9756C37.3975 72.9578 37.5484 72.9093 37.6856 72.8328C37.8228 72.7564 37.9435 72.6536 38.0408 72.5303C38.1381 72.407 38.21 72.2657 38.2525 72.1145C38.2949 71.9633 38.307 71.8052 38.288 71.6493C38.2691 71.4934 38.2195 71.3427 38.1421 71.2061C38.0647 71.0694 37.961 70.9495 37.837 70.8531C37.7131 70.7567 37.5712 70.6857 37.4197 70.6444C37.2682 70.603 37.11 70.5921 36.9543 70.6121ZM56.4146 73.1605C56.6749 73.3379 56.995 73.405 57.3047 73.3469C57.6144 73.2888 57.8884 73.1103 58.0667 72.8505C58.245 72.5907 58.313 72.2709 58.2559 71.961C58.1988 71.6512 58.0212 71.3766 57.762 71.1975C57.5865 71.0768 57.4057 70.9609 57.2197 70.8496C57.0855 70.7691 56.9369 70.7158 56.7821 70.6928C56.6274 70.6698 56.4697 70.6775 56.3179 70.7155C56.1662 70.7535 56.0234 70.8211 55.8978 70.9143C55.7722 71.0075 55.6662 71.1246 55.5858 71.2588C55.5055 71.393 55.4523 71.5417 55.4295 71.6964C55.4067 71.8512 55.4145 72.0089 55.4527 72.1606C55.4908 72.3123 55.5585 72.455 55.6519 72.5806C55.7452 72.7061 55.8624 72.812 55.9966 72.8922C56.1397 72.9779 56.2786 73.0672 56.4146 73.1605Z" fill="#EF7C00"/>
<path d="M52.1258 71.5345C52.4362 71.5871 52.7547 71.5147 53.0118 71.3331C53.2689 71.1515 53.4436 70.8754 53.4977 70.5654C53.5518 70.2553 53.4809 69.9364 53.3005 69.6785C53.1201 69.4205 52.8449 69.2445 52.5351 69.189C52.3374 69.1544 52.1365 69.1229 51.9323 69.0945C51.7775 69.0728 51.6199 69.0819 51.4686 69.1211C51.3172 69.1603 51.1751 69.2289 51.0503 69.3231C50.9255 69.4172 50.8205 69.535 50.7412 69.6697C50.662 69.8044 50.61 69.9535 50.5883 70.1083C50.5666 70.2631 50.5757 70.4206 50.6149 70.572C50.6541 70.7233 50.7227 70.8654 50.8169 70.9902C50.911 71.115 51.0288 71.22 51.1635 71.2993C51.2983 71.3786 51.4473 71.4305 51.6021 71.4522C51.7794 71.4772 51.954 71.5046 52.1258 71.5345ZM41.8993 69.6148C41.7103 69.6514 41.5199 69.6895 41.3278 69.729C41.1747 69.7605 41.0293 69.8219 40.8999 69.9096C40.7705 69.9973 40.6596 70.1097 40.5736 70.2403C40.4876 70.3708 40.4282 70.5171 40.3987 70.6706C40.3692 70.8242 40.3703 70.982 40.4018 71.1351C40.4333 71.2883 40.4947 71.4337 40.5825 71.5631C40.6702 71.6925 40.7825 71.8034 40.9131 71.8893C41.0437 71.9753 41.1899 72.0348 41.3435 72.0642C41.497 72.0937 41.6548 72.0927 41.808 72.0611L42.355 71.9516C42.5084 71.9216 42.6544 71.8618 42.7847 71.7754C42.915 71.6891 43.0271 71.5779 43.1144 71.4482C43.2017 71.3186 43.2627 71.173 43.2937 71.0198C43.3248 70.8666 43.3254 70.7087 43.2955 70.5553C43.2656 70.4019 43.2057 70.2558 43.1193 70.1255C43.033 69.9952 42.9218 69.8832 42.7921 69.7959C42.6625 69.7085 42.5169 69.6476 42.3637 69.6165C42.2105 69.5854 42.0527 69.5848 41.8993 69.6148ZM31.9866 70.1318C31.6992 70.0018 31.3721 69.9912 31.0769 70.1021C30.7817 70.2131 30.5426 70.4366 30.412 70.7237C30.2814 71.0108 30.2701 71.3379 30.3805 71.6333C30.4908 71.9287 30.7139 72.1683 31.0007 72.2994C31.1977 72.3887 31.4053 72.4732 31.6244 72.5508C31.9214 72.654 32.2471 72.6356 32.5305 72.4995C32.8139 72.3634 33.032 72.1208 33.1371 71.8245C33.2423 71.5283 33.226 71.2024 33.0918 70.9181C32.9576 70.6338 32.7163 70.4142 32.4208 70.3071C32.2679 70.2527 32.1232 70.1943 31.9866 70.1318Z" fill="#FF5050"/>
<path d="M1.19048 89.6061C1.84796 89.6061 2.38095 89.0731 2.38095 88.4156C2.38095 87.7581 1.84796 87.2251 1.19048 87.2251C0.532994 87.2251 0 87.7581 0 88.4156C0 89.0731 0.532994 89.6061 1.19048 89.6061Z" fill="#EF7C00"/>
<path d="M6.54748 87.2251H4.76177C4.44603 87.2251 4.14323 87.3505 3.91997 87.5738C3.69671 87.797 3.57129 88.0998 3.57129 88.4156C3.57129 88.7313 3.69671 89.0341 3.91997 89.2574C4.14323 89.4806 4.44603 89.6061 4.76177 89.6061H6.54748C6.86321 89.6061 7.16602 89.4806 7.38927 89.2574C7.61253 89.0341 7.73796 88.7313 7.73796 88.4156C7.73796 88.0998 7.61253 87.797 7.38927 87.5738C7.16602 87.3505 6.86321 87.2251 6.54748 87.2251ZM95.238 87.2251H93.4522C93.1365 87.2251 92.8337 87.3505 92.6104 87.5738C92.3872 87.797 92.2618 88.0998 92.2618 88.4156C92.2618 88.7313 92.3872 89.0341 92.6104 89.2574C92.8337 89.4806 93.1365 89.6061 93.4522 89.6061H95.238C95.5537 89.6061 95.8565 89.4806 96.0798 89.2574C96.303 89.0341 96.4284 88.7313 96.4284 88.4156C96.4284 88.0998 96.303 87.797 96.0798 87.5738C95.8565 87.3505 95.5537 87.2251 95.238 87.2251Z" fill="#EF7C00"/>
<path d="M98.8096 89.6061C99.4671 89.6061 100 89.0731 100 88.4156C100 87.7581 99.4671 87.2251 98.8096 87.2251C98.1521 87.2251 97.6191 87.7581 97.6191 88.4156C97.6191 89.0731 98.1521 89.6061 98.8096 89.6061Z" fill="#EF7C00"/>
<path d="M59.0215 76.377C59.0815 76.522 59.1696 76.6537 59.2806 76.7645C59.3917 76.8753 59.5235 76.963 59.6686 77.0227C59.8137 77.0824 59.9691 77.1128 60.126 77.1122C60.2829 77.1116 60.4381 77.08 60.5827 77.0192C60.7273 76.9584 60.8585 76.8696 60.9687 76.758C61.0789 76.6463 61.166 76.514 61.2249 76.3686C61.2837 76.2232 61.3133 76.0676 61.3119 75.9107C61.3104 75.7539 61.278 75.5988 61.2164 75.4545C61.1734 75.3522 61.129 75.251 61.0833 75.1508C60.9523 74.8636 60.7125 74.6402 60.4168 74.5298C60.121 74.4194 59.7935 74.4309 59.5063 74.562C59.2191 74.693 58.9957 74.9328 58.8853 75.2285C58.7748 75.5243 58.7864 75.8518 58.9175 76.139C58.9529 76.2175 58.9878 76.2968 59.0215 76.377Z" fill="#FF5050"/>
<path d="M89.715 87.2251H67.0234C67.4519 87.0668 67.8802 86.8983 68.3077 86.7087C67.8777 85.9876 67.4675 85.2996 67.077 84.6448C65.2095 85.4651 63.206 85.9319 61.1682 86.0213C58.1804 86.1221 56.0999 85.6449 54.4165 84.4739C46.979 79.3025 39.1723 76.6861 31.6801 76.6861C26.1371 76.6765 20.6933 78.1557 15.9173 80.969C15.7631 81.0558 15.5882 81.0992 15.4113 81.0948C15.2344 81.0904 15.062 81.0383 14.9123 80.944C14.7269 80.8414 14.5716 80.6922 14.4617 80.5111C14.3518 80.3301 14.2911 80.1234 14.2856 79.9117V44.0276C13.3792 42.4951 12.8773 41.6347 12.5941 41.1314L12.5575 41.1532C12.3256 40.7643 12.1102 40.3725 11.9047 39.979V79.9117C11.9101 80.5425 12.0814 81.1608 12.4013 81.7045C12.7213 82.2482 13.1787 82.6981 13.7276 83.009C14.2402 83.3134 14.8247 83.4753 15.4208 83.478C16.0169 83.4807 16.6029 83.3241 17.1182 83.0244C27.8383 76.7608 40.9376 78.0015 53.0575 86.4288C53.5011 86.7319 53.9688 86.9983 54.4558 87.2251H10.2849C10.1155 87.203 9.94336 87.2172 9.77995 87.2669C9.61654 87.3167 9.46562 87.4006 9.33726 87.5133C9.2089 87.626 9.10606 87.7648 9.03561 87.9204C8.96515 88.076 8.92871 88.2448 8.92871 88.4156C8.92871 88.5864 8.96515 88.7552 9.03561 88.9108C9.10606 89.0664 9.2089 89.2052 9.33726 89.3179C9.46562 89.4305 9.61654 89.5145 9.77995 89.5642C9.94336 89.6139 10.1155 89.6282 10.2849 89.6061H89.715C89.8843 89.6282 90.0565 89.6139 90.2199 89.5642C90.3833 89.5145 90.5342 89.4305 90.6626 89.3179C90.7909 89.2052 90.8938 89.0664 90.9642 88.9108C91.0347 88.7552 91.0711 88.5864 91.0711 88.4156C91.0711 88.2448 91.0347 88.076 90.9642 87.9204C90.8938 87.7648 90.7909 87.626 90.6626 87.5133C90.5342 87.4006 90.3833 87.3167 90.2199 87.2669C90.0565 87.2172 89.8843 87.203 89.715 87.2251Z" fill="#EF7C00"/>
</svg>
